<svg xmlns="http://www.w3.org/2000/svg" xmlns:xlink="http://www.w3.org/1999/xlink" contentStyleType="text/css" data-diagram-type="CLASS" height="732px" preserveAspectRatio="none" style="width:435px;height:732px;background:#FFFFFF;" version="1.1" viewBox="0 0 435 732" width="435px" zoomAndPan="magnify"><title>Django Models - Class Diagram (Subset)</title><defs/><g><text fill="#000000" font-family="sans-serif" font-size="14" font-weight="bold" lengthAdjust="spacing" textLength="317.2559" x="52.1963" y="22.9951">Django Models - Class Diagram (Subset)</text><!--class User--><g class="entity" data-entity="User" data-source-line="5" data-uid="ent0002" id="entity_User"><rect fill="#F1F1F1" height="88.8594" rx="2.5" ry="2.5" style="stroke:#181818;stroke-width:0.5;" width="170.0488" x="28" y="44.2969"/><ellipse cx="43" cy="64.4297" fill="#ADD1B2" rx="11" ry="11" style="stroke:#181818;stroke-width:1;"/><path d="M45.9688,70.0703 Q45.3906,70.3672 44.75,70.5078 Q44.1094,70.6641 43.4063,70.6641 Q40.9063,70.6641 39.5781,69.0234 Q38.2656,67.3672 38.2656,64.2422 Q38.2656,61.1172 39.5781,59.4609 Q40.9063,57.8047 43.4063,57.8047 Q44.1094,57.8047 44.75,57.9609 Q45.4063,58.1172 45.9688,58.4141 L45.9688,61.1328 Q45.3438,60.5547 44.75,60.2891 Q44.1563,60.0078 43.5313,60.0078 Q42.1875,60.0078 41.5,61.0859 Q40.8125,62.1484 40.8125,64.2422 Q40.8125,66.3359 41.5,67.4141 Q42.1875,68.4766 43.5313,68.4766 Q44.1563,68.4766 44.75,68.2109 Q45.3438,67.9297 45.9688,67.3516 L45.9688,70.0703 Z " fill="#000000"/><text fill="#000000" font-family="sans-serif" font-size="12" font-style="italic" lengthAdjust="spacing" textLength="142.0488" x="55" y="60.4355">&#171;(External, #ADD1B2)&#187;</text><text fill="#000000" font-family="sans-serif" font-size="14" lengthAdjust="spacing" textLength="31.9102" x="110.0693" y="76.2607">User</text><line style="stroke:#181818;stroke-width:0.5;" x1="29" x2="197.0488" y1="84.5625" y2="84.5625"/><ellipse cx="39" cy="98.2109" fill="none" rx="3" ry="3" style="stroke:#038048;stroke-width:1;"/><text fill="#000000" font-family="sans-serif" font-size="14" lengthAdjust="spacing" textLength="116.4707" x="48" y="101.5576">String username</text><ellipse cx="39" cy="114.5078" fill="none" rx="3" ry="3" style="stroke:#038048;stroke-width:1;"/><text fill="#000000" font-family="sans-serif" font-size="14" lengthAdjust="spacing" textLength="84.8408" x="48" y="117.8545">String email</text><line style="stroke:#181818;stroke-width:0.5;" x1="29" x2="197.0488" y1="125.1563" y2="125.1563"/></g><!--class SoftDeleteModel--><g class="entity" data-entity="SoftDeleteModel" data-source-line="10" data-uid="ent0003" id="entity_SoftDeleteModel"><rect fill="#F1F1F1" height="48" rx="2.5" ry="2.5" style="stroke:#181818;stroke-width:0.5;" width="147.9033" x="233" y="64.7969"/><ellipse cx="248" cy="80.7969" fill="#FF7700" rx="11" ry="11" style="stroke:#181818;stroke-width:1;"/><path d="M248.1094,76.1406 L246.9531,81.2188 L249.2813,81.2188 L248.1094,76.1406 Z M246.625,73.9063 L249.6094,73.9063 L252.9688,86.2969 L250.5156,86.2969 L249.75,83.2344 L246.4688,83.2344 L245.7188,86.2969 L243.2813,86.2969 L246.625,73.9063 Z " fill="#000000"/><text fill="#000000" font-family="sans-serif" font-size="14" font-style="italic" lengthAdjust="spacing" textLength="115.9033" x="262" y="85.6436">SoftDeleteModel</text><line style="stroke:#181818;stroke-width:0.5;" x1="234" x2="379.9033" y1="96.7969" y2="96.7969"/><line style="stroke:#181818;stroke-width:0.5;" x1="234" x2="379.9033" y1="104.7969" y2="104.7969"/></g><!--class Profile--><g class="entity" data-entity="Profile" data-source-line="14" data-uid="ent0004" id="entity_Profile"><rect fill="#F1F1F1" height="373.9375" rx="2.5" ry="2.5" style="stroke:#181818;stroke-width:0.5;" width="260.2061" x="80" y="210.2969"/><ellipse cx="183.8105" cy="226.2969" fill="#ADD1B2" rx="11" ry="11" style="stroke:#181818;stroke-width:1;"/><path d="M186.7793,231.9375 Q186.2012,232.2344 185.5605,232.375 Q184.9199,232.5313 184.2168,232.5313 Q181.7168,232.5313 180.3887,230.8906 Q179.0762,229.2344 179.0762,226.1094 Q179.0762,222.9844 180.3887,221.3281 Q181.7168,219.6719 184.2168,219.6719 Q184.9199,219.6719 185.5605,219.8281 Q186.2168,219.9844 186.7793,220.2813 L186.7793,223 Q186.1543,222.4219 185.5605,222.1563 Q184.9668,221.875 184.3418,221.875 Q182.998,221.875 182.3105,222.9531 Q181.623,224.0156 181.623,226.1094 Q181.623,228.2031 182.3105,229.2813 Q182.998,230.3438 184.3418,230.3438 Q184.9668,230.3438 185.5605,230.0781 Q186.1543,229.7969 186.7793,229.2188 L186.7793,231.9375 Z " fill="#000000"/><text fill="#000000" font-family="sans-serif" font-size="14" lengthAdjust="spacing" textLength="44.085" x="204.3105" y="231.1436">Profile</text><line style="stroke:#181818;stroke-width:0.5;" x1="81" x2="339.2061" y1="242.2969" y2="242.2969"/><ellipse cx="91" cy="255.9453" fill="none" rx="3" ry="3" style="stroke:#038048;stroke-width:1;"/><text fill="#000000" font-family="sans-serif" font-size="14" lengthAdjust="spacing" textLength="81.9014" x="100" y="259.292">Email email</text><ellipse cx="91" cy="272.2422" fill="none" rx="3" ry="3" style="stroke:#038048;stroke-width:1;"/><text fill="#000000" font-family="sans-serif" font-size="14" lengthAdjust="spacing" textLength="131.4893" x="100" y="275.5889">String email_token</text><ellipse cx="91" cy="288.5391" fill="none" rx="3" ry="3" style="stroke:#038048;stroke-width:1;"/><text fill="#000000" font-family="sans-serif" font-size="14" lengthAdjust="spacing" textLength="208.8311" x="100" y="291.8857">String forget_password_token</text><ellipse cx="91" cy="304.8359" fill="none" rx="3" ry="3" style="stroke:#038048;stroke-width:1;"/><text fill="#000000" font-family="sans-serif" font-size="14" lengthAdjust="spacing" textLength="106.1211" x="100" y="308.1826">Bool is_verified</text><ellipse cx="91" cy="321.1328" fill="none" rx="3" ry="3" style="stroke:#038048;stroke-width:1;"/><text fill="#000000" font-family="sans-serif" font-size="14" lengthAdjust="spacing" textLength="147.3076" x="100" y="324.4795">DateTime created_at</text><ellipse cx="91" cy="337.4297" fill="none" rx="3" ry="3" style="stroke:#038048;stroke-width:1;"/><text fill="#000000" font-family="sans-serif" font-size="14" lengthAdjust="spacing" textLength="154.9707" x="100" y="340.7764">DateTime modified_at</text><ellipse cx="91" cy="353.7266" fill="none" rx="3" ry="3" style="stroke:#038048;stroke-width:1;"/><text fill="#000000" font-family="sans-serif" font-size="14" lengthAdjust="spacing" textLength="118.7607" x="100" y="357.0732">Image foto_profil</text><ellipse cx="91" cy="370.0234" fill="none" rx="3" ry="3" style="stroke:#038048;stroke-width:1;"/><text fill="#000000" font-family="sans-serif" font-size="14" lengthAdjust="spacing" textLength="148.7363" x="100" y="373.3701">String nama_lengkap</text><ellipse cx="91" cy="386.3203" fill="none" rx="3" ry="3" style="stroke:#038048;stroke-width:1;"/><text fill="#000000" font-family="sans-serif" font-size="14" lengthAdjust="spacing" textLength="162.2441" x="100" y="389.667">String nama_panggilan</text><ellipse cx="91" cy="402.6172" fill="none" rx="3" ry="3" style="stroke:#038048;stroke-width:1;"/><text fill="#000000" font-family="sans-serif" font-size="14" lengthAdjust="spacing" textLength="134.9141" x="100" y="405.9639">String tempat_lahir</text><ellipse cx="91" cy="418.9141" fill="none" rx="3" ry="3" style="stroke:#038048;stroke-width:1;"/><text fill="#000000" font-family="sans-serif" font-size="14" lengthAdjust="spacing" textLength="129.083" x="100" y="422.2607">Date tanggal_lahir</text><ellipse cx="91" cy="435.2109" fill="none" rx="3" ry="3" style="stroke:#038048;stroke-width:1;"/><text fill="#000000" font-family="sans-serif" font-size="14" lengthAdjust="spacing" textLength="94.4932" x="100" y="438.5576">String agama</text><ellipse cx="91" cy="451.5078" fill="none" rx="3" ry="3" style="stroke:#038048;stroke-width:1;"/><text fill="#000000" font-family="sans-serif" font-size="14" lengthAdjust="spacing" textLength="123.6006" x="100" y="454.8545">String no_telepon</text><ellipse cx="91" cy="467.8047" fill="none" rx="3" ry="3" style="stroke:#038048;stroke-width:1;"/><text fill="#000000" font-family="sans-serif" font-size="14" lengthAdjust="spacing" textLength="67.5732" x="100" y="471.1514">String bio</text><ellipse cx="91" cy="484.1016" fill="none" rx="3" ry="3" style="stroke:#038048;stroke-width:1;"/><text fill="#000000" font-family="sans-serif" font-size="14" lengthAdjust="spacing" textLength="118.0908" x="100" y="487.4482">Int jenis_kelamin</text><line style="stroke:#181818;stroke-width:0.5;" x1="81" x2="339.2061" y1="494.75" y2="494.75"/><ellipse cx="91" cy="508.3984" fill="#84BE84" rx="3" ry="3" style="stroke:#038048;stroke-width:1;"/><text fill="#000000" font-family="sans-serif" font-size="14" lengthAdjust="spacing" textLength="113.2168" x="100" y="511.7451">User user (O2O)</text><ellipse cx="91" cy="524.6953" fill="#84BE84" rx="3" ry="3" style="stroke:#038048;stroke-width:1;"/><text fill="#000000" font-family="sans-serif" font-size="14" lengthAdjust="spacing" textLength="147.2598" x="100" y="528.042">Institusi institusi (FK)</text><ellipse cx="91" cy="540.9922" fill="#84BE84" rx="3" ry="3" style="stroke:#038048;stroke-width:1;"/><text fill="#000000" font-family="sans-serif" font-size="14" lengthAdjust="spacing" textLength="151.6621" x="100" y="544.3389">Fakultas fakultas (FK)</text><ellipse cx="91" cy="557.2891" fill="#84BE84" rx="3" ry="3" style="stroke:#038048;stroke-width:1;"/><text fill="#000000" font-family="sans-serif" font-size="14" lengthAdjust="spacing" textLength="234.2061" x="100" y="560.6357">ProgramStudi program_studi (FK)</text><ellipse cx="91" cy="573.5859" fill="#84BE84" rx="3" ry="3" style="stroke:#038048;stroke-width:1;"/><text fill="#000000" font-family="sans-serif" font-size="14" lengthAdjust="spacing" textLength="225.3535" x="100" y="576.9326">is_member_tetap_lab (property)</text></g><!--class Institusi--><g class="entity" data-entity="Institusi" data-source-line="38" data-uid="ent0006" id="entity_Institusi"><rect fill="#F1F1F1" height="64.2969" rx="2.5" ry="2.5" style="stroke:#181818;stroke-width:0.5;" width="111.9004" x="7" y="661.2969"/><ellipse cx="33.1059" cy="677.2969" fill="#ADD1B2" rx="11" ry="11" style="stroke:#181818;stroke-width:1;"/><path d="M36.0746,682.9375 Q35.4965,683.2344 34.8559,683.375 Q34.2152,683.5313 33.5121,683.5313 Q31.0121,683.5313 29.684,681.8906 Q28.3715,680.2344 28.3715,677.1094 Q28.3715,673.9844 29.684,672.3281 Q31.0121,670.6719 33.5121,670.6719 Q34.2152,670.6719 34.8559,670.8281 Q35.5121,670.9844 36.0746,671.2813 L36.0746,674 Q35.4496,673.4219 34.8559,673.1563 Q34.2621,672.875 33.6371,672.875 Q32.2934,672.875 31.6059,673.9531 Q30.9184,675.0156 30.9184,677.1094 Q30.9184,679.2031 31.6059,680.2813 Q32.2934,681.3438 33.6371,681.3438 Q34.2621,681.3438 34.8559,681.0781 Q35.4496,680.7969 36.0746,680.2188 L36.0746,682.9375 Z " fill="#000000"/><text fill="#000000" font-family="sans-serif" font-size="14" lengthAdjust="spacing" textLength="55.2207" x="49.5738" y="682.1436">Institusi</text><line style="stroke:#181818;stroke-width:0.5;" x1="8" x2="117.9004" y1="693.2969" y2="693.2969"/><ellipse cx="18" cy="706.9453" fill="none" rx="3" ry="3" style="stroke:#038048;stroke-width:1;"/><text fill="#000000" font-family="sans-serif" font-size="14" lengthAdjust="spacing" textLength="85.9004" x="27" y="710.292">String nama</text><line style="stroke:#181818;stroke-width:0.5;" x1="8" x2="117.9004" y1="717.5938" y2="717.5938"/></g><!--class Fakultas--><g class="entity" data-entity="Fakultas" data-source-line="45" data-uid="ent0007" id="entity_Fakultas"><rect fill="#F1F1F1" height="64.2969" rx="2.5" ry="2.5" style="stroke:#181818;stroke-width:0.5;" width="111.9004" x="154" y="661.2969"/><ellipse cx="178.4663" cy="677.2969" fill="#ADD1B2" rx="11" ry="11" style="stroke:#181818;stroke-width:1;"/><path d="M181.435,682.9375 Q180.8569,683.2344 180.2163,683.375 Q179.5756,683.5313 178.8725,683.5313 Q176.3725,683.5313 175.0444,681.8906 Q173.7319,680.2344 173.7319,677.1094 Q173.7319,673.9844 175.0444,672.3281 Q176.3725,670.6719 178.8725,670.6719 Q179.5756,670.6719 180.2163,670.8281 Q180.8725,670.9844 181.435,671.2813 L181.435,674 Q180.81,673.4219 180.2163,673.1563 Q179.6225,672.875 178.9975,672.875 Q177.6538,672.875 176.9663,673.9531 Q176.2788,675.0156 176.2788,677.1094 Q176.2788,679.2031 176.9663,680.2813 Q177.6538,681.3438 178.9975,681.3438 Q179.6225,681.3438 180.2163,681.0781 Q180.81,680.7969 181.435,680.2188 L181.435,682.9375 Z " fill="#000000"/><text fill="#000000" font-family="sans-serif" font-size="14" lengthAdjust="spacing" textLength="58.8643" x="194.5699" y="682.1436">Fakultas</text><line style="stroke:#181818;stroke-width:0.5;" x1="155" x2="264.9004" y1="693.2969" y2="693.2969"/><ellipse cx="165" cy="706.9453" fill="none" rx="3" ry="3" style="stroke:#038048;stroke-width:1;"/><text fill="#000000" font-family="sans-serif" font-size="14" lengthAdjust="spacing" textLength="85.9004" x="174" y="710.292">String nama</text><line style="stroke:#181818;stroke-width:0.5;" x1="155" x2="264.9004" y1="717.5938" y2="717.5938"/></g><!--class ProgramStudi--><g class="entity" data-entity="ProgramStudi" data-source-line="52" data-uid="ent0008" id="entity_ProgramStudi"><rect fill="#F1F1F1" height="64.2969" rx="2.5" ry="2.5" style="stroke:#181818;stroke-width:0.5;" width="127.6484" x="301" y="661.2969"/><ellipse cx="316" cy="677.2969" fill="#ADD1B2" rx="11" ry="11" style="stroke:#181818;stroke-width:1;"/><path d="M318.9688,682.9375 Q318.3906,683.2344 317.75,683.375 Q317.1094,683.5313 316.4063,683.5313 Q313.9063,683.5313 312.5781,681.8906 Q311.2656,680.2344 311.2656,677.1094 Q311.2656,673.9844 312.5781,672.3281 Q313.9063,670.6719 316.4063,670.6719 Q317.1094,670.6719 317.75,670.8281 Q318.4063,670.9844 318.9688,671.2813 L318.9688,674 Q318.3438,673.4219 317.75,673.1563 Q317.1563,672.875 316.5313,672.875 Q315.1875,672.875 314.5,673.9531 Q313.8125,675.0156 313.8125,677.1094 Q313.8125,679.2031 314.5,680.2813 Q315.1875,681.3438 316.5313,681.3438 Q317.1563,681.3438 317.75,681.0781 Q318.3438,680.7969 318.9688,680.2188 L318.9688,682.9375 Z " fill="#000000"/><text fill="#000000" font-family="sans-serif" font-size="14" lengthAdjust="spacing" textLength="95.6484" x="330" y="682.1436">ProgramStudi</text><line style="stroke:#181818;stroke-width:0.5;" x1="302" x2="427.6484" y1="693.2969" y2="693.2969"/><ellipse cx="312" cy="706.9453" fill="none" rx="3" ry="3" style="stroke:#038048;stroke-width:1;"/><text fill="#000000" font-family="sans-serif" font-size="14" lengthAdjust="spacing" textLength="85.9004" x="321" y="710.292">String nama</text><line style="stroke:#181818;stroke-width:0.5;" x1="302" x2="427.6484" y1="717.5938" y2="717.5938"/></g><!--reverse link SoftDeleteModel to Profile--><g class="link" data-entity-1="SoftDeleteModel" data-entity-2="Profile" data-source-line="15" data-uid="lnk5" id="link_SoftDeleteModel_Profile"><path d="M294.2775,129.9975 C287.2275,152.2675 281.26,171.1469 268.91,210.1669" fill="none" id="SoftDeleteModel-backto-Profile" style="stroke:#181818;stroke-width:1;"/><polygon fill="none" points="299.71,112.8369,288.5573,128.1867,299.9977,131.8084,299.71,112.8369" style="stroke:#181818;stroke-width:1;"/></g><!--link User to Profile--><g class="link" data-entity-1="User" data-entity-2="Profile" data-source-line="60" data-uid="lnk9" id="link_User_Profile"><path codeLine="60" d="M126.79,133.3869 C133.49,154.5369 138.422,170.1053 147.472,198.7253" fill="none" id="User-to-Profile" style="stroke:#181818;stroke-width:1;"/><polygon fill="none" points="151.09,210.1669,153.0949,203.2401,147.472,198.7253,145.4671,205.6521,151.09,210.1669" style="stroke:#181818;stroke-width:1;"/><text fill="#000000" font-family="sans-serif" font-size="13" lengthAdjust="spacing" textLength="28.355" x="141" y="176.3638">user</text><text fill="#000000" font-family="sans-serif" font-size="13" lengthAdjust="spacing" textLength="8.271" x="120.2442" y="153.1246">1</text><text fill="#000000" font-family="sans-serif" font-size="13" lengthAdjust="spacing" textLength="8.271" x="140.4374" y="199.0269">1</text></g><!--reverse link Profile to Institusi--><g class="link" data-entity-1="Profile" data-entity-2="Institusi" data-source-line="61" data-uid="lnk10" id="link_Profile_Institusi"><path codeLine="61" d="M111.5349,595.2207 C96.7249,624.8507 88.42,641.4569 78.55,661.1869" fill="none" id="Profile-backto-Institusi" style="stroke:#181818;stroke-width:1;"/><polygon fill="none" points="116.9,584.4869,110.6395,588.0654,111.5349,595.2207,117.7954,591.6422,116.9,584.4869" style="stroke:#181818;stroke-width:1;"/><text fill="#000000" font-family="sans-serif" font-size="13" lengthAdjust="spacing" textLength="51.0542" x="100" y="627.3638">institusi</text><text fill="#000000" font-family="sans-serif" font-size="13" lengthAdjust="spacing" textLength="36.5625" x="76.5671" y="604.1627">many</text><text fill="#000000" font-family="sans-serif" font-size="13" lengthAdjust="spacing" textLength="8.271" x="72.9704" y="650.0673">1</text></g><!--reverse link Profile to Fakultas--><g class="link" data-entity-1="Profile" data-entity-2="Fakultas" data-source-line="62" data-uid="lnk11" id="link_Profile_Fakultas"><path codeLine="62" d="M210,596.4869 C210,626.1169 210,641.4569 210,661.1869" fill="none" id="Profile-backto-Fakultas" style="stroke:#181818;stroke-width:1;"/><polygon fill="none" points="210,584.4869,206,590.4869,210,596.4869,214,590.4869,210,584.4869" style="stroke:#181818;stroke-width:1;"/><text fill="#000000" font-family="sans-serif" font-size="13" lengthAdjust="spacing" textLength="51.7588" x="211" y="627.3638">fakultas</text><text fill="#000000" font-family="sans-serif" font-size="13" lengthAdjust="spacing" textLength="36.5625" x="173.3038" y="604.1627">many</text><text fill="#000000" font-family="sans-serif" font-size="13" lengthAdjust="spacing" textLength="8.271" x="201.2132" y="650.0673">1</text></g><!--reverse link Profile to ProgramStudi--><g class="link" data-entity-1="Profile" data-entity-2="ProgramStudi" data-source-line="63" data-uid="lnk12" id="link_Profile_ProgramStudi"><path codeLine="63" d="M313.756,595.1022 C329.376,624.7322 338.2,641.4569 348.6,661.1869" fill="none" id="Profile-backto-ProgramStudi" style="stroke:#181818;stroke-width:1;"/><polygon fill="none" points="308.16,584.4869,307.4196,591.6599,313.756,595.1022,314.4965,587.9292,308.16,584.4869" style="stroke:#181818;stroke-width:1;"/><text fill="#000000" font-family="sans-serif" font-size="13" lengthAdjust="spacing" textLength="94.25" x="332" y="627.3638">program_studi</text><text fill="#000000" font-family="sans-serif" font-size="13" lengthAdjust="spacing" textLength="36.5625" x="275.2982" y="604.1627">many</text><text fill="#000000" font-family="sans-serif" font-size="13" lengthAdjust="spacing" textLength="8.271" x="336.4567" y="650.0673">1</text></g><!--SRC=[jLDTRzf047pthrYH1q04DOagHK9H95A72bLLebAUhGMlpONxqjswRHhrl-TyO8oJyfWdtysjT-PcvrYm94YVK9S6lfkSf8SnV97eFQG2IuSA1ejgvOc7YTyARR66R5uyOaaByPTW-Zb9-Z2jUBDlaApZxqjF3cvk1lT_c9n6UGvdqpIzlBiQtjx2ImAZ1JkXIwXyVQoeHKYXaCc_9C6LPuThXbt7XIau9KbCaQXkFZq_cyskhoykzasX3uyIrxGnCW_qXN7l_Ye4oTn_KiGRatiG1Q1-hjbs98_E529uGa6spj-JrYIZUBTQE0mUhXw6DNHVYzvBX-vLCZPRqaTea5KIPpRm_JOkRy_lZ94WVFQBd0WwynfBaUcdK0HhHs6PPyWTM9ayrkxnkGg32GniCXklSiGRRCPCaYwtQD_2DaIW51AFTJ8fYvn9t0ZNS0BNXIXRT5-CPMXptDLa77op9dQSQy-2Aoz075Q3sRTetGotbMJqK3IBvYGCeuxWWgjSWDrjCXztJScURINCZeRXYNImS4iIbOZSOQT8hSW5GOmsA5_187IpvFXvM8- -3rz9aqFPZN0h-kMDNJ5fe-Loda9LYJoBeTg1_vzN_yJ43haxcF3nL1rNFvAk3p_255WOxJV2-YG-czvb3yPZ4x_DOvl4nvGqsvuAJx87PZoELUqO9crwJXKVV9mSudIgjEF3f9klLm00]--></g></svg>