<svg xmlns="http://www.w3.org/2000/svg" xmlns:xlink="http://www.w3.org/1999/xlink" contentStyleType="text/css" data-diagram-type="CLASS" height="569px" preserveAspectRatio="none" style="width:899px;height:569px;background:#FFFFFF;" version="1.1" viewBox="0 0 899 569" width="899px" zoomAndPan="magnify"><title>General Models - Class Diagram</title><defs/><g><text fill="#000000" font-family="sans-serif" font-size="14" font-weight="bold" lengthAdjust="spacing" textLength="251.1182" x="317.3188" y="22.9951">General Models - Class Diagram</text><!--class PeriodeAkademik--><g class="entity" data-entity="PeriodeAkademik" data-source-line="4" data-uid="ent0002" id="entity_PeriodeAkademik"><rect fill="#F1F1F1" height="113.1875" rx="2.5" ry="2.5" style="stroke:#181818;stroke-width:0.5;" width="207.2344" x="7" y="44.2969"/><ellipse cx="45.8812" cy="60.2969" fill="#ADD1B2" rx="11" ry="11" style="stroke:#181818;stroke-width:1;"/><path d="M48.85,65.9375 Q48.2718,66.2344 47.6312,66.375 Q46.9906,66.5313 46.2875,66.5313 Q43.7875,66.5313 42.4593,64.8906 Q41.1468,63.2344 41.1468,60.1094 Q41.1468,56.9844 42.4593,55.3281 Q43.7875,53.6719 46.2875,53.6719 Q46.9906,53.6719 47.6312,53.8281 Q48.2875,53.9844 48.85,54.2813 L48.85,57 Q48.225,56.4219 47.6312,56.1563 Q47.0375,55.875 46.4125,55.875 Q45.0687,55.875 44.3812,56.9531 Q43.6937,58.0156 43.6937,60.1094 Q43.6937,62.2031 44.3812,63.2813 Q45.0687,64.3438 46.4125,64.3438 Q47.0375,64.3438 47.6312,64.0781 Q48.225,63.7969 48.85,63.2188 L48.85,65.9375 Z " fill="#000000"/><text fill="#000000" font-family="sans-serif" font-size="14" lengthAdjust="spacing" textLength="122.165" x="65.1881" y="65.1436">PeriodeAkademik</text><line style="stroke:#181818;stroke-width:0.5;" x1="8" x2="213.2344" y1="76.2969" y2="76.2969"/><ellipse cx="18" cy="89.9453" fill="none" rx="3" ry="3" style="stroke:#038048;stroke-width:1;"/><text fill="#000000" font-family="sans-serif" font-size="14" lengthAdjust="spacing" textLength="178.5273" x="27" y="93.292">Int tahun_akademik_awal</text><ellipse cx="18" cy="106.2422" fill="none" rx="3" ry="3" style="stroke:#038048;stroke-width:1;"/><text fill="#000000" font-family="sans-serif" font-size="14" lengthAdjust="spacing" textLength="181.2344" x="27" y="109.5889">Int tahun_akademik_akhir</text><ellipse cx="18" cy="122.5391" fill="none" rx="3" ry="3" style="stroke:#038048;stroke-width:1;"/><text fill="#000000" font-family="sans-serif" font-size="14" lengthAdjust="spacing" textLength="88.252" x="27" y="125.8857">Int semester</text><ellipse cx="18" cy="138.8359" fill="none" rx="3" ry="3" style="stroke:#038048;stroke-width:1;"/><text fill="#000000" font-family="sans-serif" font-size="14" lengthAdjust="spacing" textLength="95.8125" x="27" y="142.1826">Bool is_active</text><line style="stroke:#181818;stroke-width:0.5;" x1="8" x2="213.2344" y1="149.4844" y2="149.4844"/></g><!--class Berkas--><g class="entity" data-entity="Berkas" data-source-line="11" data-uid="ent0003" id="entity_Berkas"><rect fill="#F1F1F1" height="80.5938" rx="2.5" ry="2.5" style="stroke:#181818;stroke-width:0.5;" width="130.4531" x="249.5" y="60.2969"/><ellipse cx="287.2246" cy="76.2969" fill="#ADD1B2" rx="11" ry="11" style="stroke:#181818;stroke-width:1;"/><path d="M290.1933,81.9375 Q289.6152,82.2344 288.9746,82.375 Q288.3339,82.5313 287.6308,82.5313 Q285.1308,82.5313 283.8027,80.8906 Q282.4902,79.2344 282.4902,76.1094 Q282.4902,72.9844 283.8027,71.3281 Q285.1308,69.6719 287.6308,69.6719 Q288.3339,69.6719 288.9746,69.8281 Q289.6308,69.9844 290.1933,70.2813 L290.1933,73 Q289.5683,72.4219 288.9746,72.1563 Q288.3808,71.875 287.7558,71.875 Q286.4121,71.875 285.7246,72.9531 Q285.0371,74.0156 285.0371,76.1094 Q285.0371,78.2031 285.7246,79.2813 Q286.4121,80.3438 287.7558,80.3438 Q288.3808,80.3438 288.9746,80.0781 Q289.5683,79.7969 290.1933,79.2188 L290.1933,81.9375 Z " fill="#000000"/><text fill="#000000" font-family="sans-serif" font-size="14" lengthAdjust="spacing" textLength="47.9541" x="306.2745" y="81.1436">Berkas</text><line style="stroke:#181818;stroke-width:0.5;" x1="250.5" x2="378.9531" y1="92.2969" y2="92.2969"/><ellipse cx="260.5" cy="105.9453" fill="none" rx="3" ry="3" style="stroke:#038048;stroke-width:1;"/><text fill="#000000" font-family="sans-serif" font-size="14" lengthAdjust="spacing" textLength="85.9004" x="269.5" y="109.292">String nama</text><ellipse cx="260.5" cy="122.2422" fill="none" rx="3" ry="3" style="stroke:#038048;stroke-width:1;"/><text fill="#000000" font-family="sans-serif" font-size="14" lengthAdjust="spacing" textLength="104.4531" x="269.5" y="125.5889">File file_berkas</text><line style="stroke:#181818;stroke-width:0.5;" x1="250.5" x2="378.9531" y1="132.8906" y2="132.8906"/></g><!--class Institusi--><g class="entity" data-entity="Institusi" data-source-line="16" data-uid="ent0004" id="entity_Institusi"><rect fill="#F1F1F1" height="64.2969" rx="2.5" ry="2.5" style="stroke:#181818;stroke-width:0.5;" width="111.9004" x="414.5" y="68.7969"/><ellipse cx="440.6059" cy="84.7969" fill="#ADD1B2" rx="11" ry="11" style="stroke:#181818;stroke-width:1;"/><path d="M443.5746,90.4375 Q442.9965,90.7344 442.3559,90.875 Q441.7152,91.0313 441.0121,91.0313 Q438.5121,91.0313 437.184,89.3906 Q435.8715,87.7344 435.8715,84.6094 Q435.8715,81.4844 437.184,79.8281 Q438.5121,78.1719 441.0121,78.1719 Q441.7152,78.1719 442.3559,78.3281 Q443.0121,78.4844 443.5746,78.7813 L443.5746,81.5 Q442.9496,80.9219 442.3559,80.6563 Q441.7621,80.375 441.1371,80.375 Q439.7934,80.375 439.1059,81.4531 Q438.4184,82.5156 438.4184,84.6094 Q438.4184,86.7031 439.1059,87.7813 Q439.7934,88.8438 441.1371,88.8438 Q441.7621,88.8438 442.3559,88.5781 Q442.9496,88.2969 443.5746,87.7188 L443.5746,90.4375 Z " fill="#000000"/><text fill="#000000" font-family="sans-serif" font-size="14" lengthAdjust="spacing" textLength="55.2207" x="457.0738" y="89.6436">Institusi</text><line style="stroke:#181818;stroke-width:0.5;" x1="415.5" x2="525.4004" y1="100.7969" y2="100.7969"/><ellipse cx="425.5" cy="114.4453" fill="none" rx="3" ry="3" style="stroke:#038048;stroke-width:1;"/><text fill="#000000" font-family="sans-serif" font-size="14" lengthAdjust="spacing" textLength="85.9004" x="434.5" y="117.792">String nama</text><line style="stroke:#181818;stroke-width:0.5;" x1="415.5" x2="525.4004" y1="125.0938" y2="125.0938"/></g><!--class Fakultas--><g class="entity" data-entity="Fakultas" data-source-line="20" data-uid="ent0005" id="entity_Fakultas"><rect fill="#F1F1F1" height="64.2969" rx="2.5" ry="2.5" style="stroke:#181818;stroke-width:0.5;" width="111.9004" x="561.5" y="68.7969"/><ellipse cx="585.9663" cy="84.7969" fill="#ADD1B2" rx="11" ry="11" style="stroke:#181818;stroke-width:1;"/><path d="M588.935,90.4375 Q588.3569,90.7344 587.7163,90.875 Q587.0756,91.0313 586.3725,91.0313 Q583.8725,91.0313 582.5444,89.3906 Q581.2319,87.7344 581.2319,84.6094 Q581.2319,81.4844 582.5444,79.8281 Q583.8725,78.1719 586.3725,78.1719 Q587.0756,78.1719 587.7163,78.3281 Q588.3725,78.4844 588.935,78.7813 L588.935,81.5 Q588.31,80.9219 587.7163,80.6563 Q587.1225,80.375 586.4975,80.375 Q585.1538,80.375 584.4663,81.4531 Q583.7788,82.5156 583.7788,84.6094 Q583.7788,86.7031 584.4663,87.7813 Q585.1538,88.8438 586.4975,88.8438 Q587.1225,88.8438 587.7163,88.5781 Q588.31,88.2969 588.935,87.7188 L588.935,90.4375 Z " fill="#000000"/><text fill="#000000" font-family="sans-serif" font-size="14" lengthAdjust="spacing" textLength="58.8643" x="602.0699" y="89.6436">Fakultas</text><line style="stroke:#181818;stroke-width:0.5;" x1="562.5" x2="672.4004" y1="100.7969" y2="100.7969"/><ellipse cx="572.5" cy="114.4453" fill="none" rx="3" ry="3" style="stroke:#038048;stroke-width:1;"/><text fill="#000000" font-family="sans-serif" font-size="14" lengthAdjust="spacing" textLength="85.9004" x="581.5" y="117.792">String nama</text><line style="stroke:#181818;stroke-width:0.5;" x1="562.5" x2="672.4004" y1="125.0938" y2="125.0938"/></g><!--class ProgramStudi--><g class="entity" data-entity="ProgramStudi" data-source-line="24" data-uid="ent0006" id="entity_ProgramStudi"><rect fill="#F1F1F1" height="64.2969" rx="2.5" ry="2.5" style="stroke:#181818;stroke-width:0.5;" width="127.6484" x="708.5" y="68.7969"/><ellipse cx="723.5" cy="84.7969" fill="#ADD1B2" rx="11" ry="11" style="stroke:#181818;stroke-width:1;"/><path d="M726.4688,90.4375 Q725.8906,90.7344 725.25,90.875 Q724.6094,91.0313 723.9063,91.0313 Q721.4063,91.0313 720.0781,89.3906 Q718.7656,87.7344 718.7656,84.6094 Q718.7656,81.4844 720.0781,79.8281 Q721.4063,78.1719 723.9063,78.1719 Q724.6094,78.1719 725.25,78.3281 Q725.9063,78.4844 726.4688,78.7813 L726.4688,81.5 Q725.8438,80.9219 725.25,80.6563 Q724.6563,80.375 724.0313,80.375 Q722.6875,80.375 722,81.4531 Q721.3125,82.5156 721.3125,84.6094 Q721.3125,86.7031 722,87.7813 Q722.6875,88.8438 724.0313,88.8438 Q724.6563,88.8438 725.25,88.5781 Q725.8438,88.2969 726.4688,87.7188 L726.4688,90.4375 Z " fill="#000000"/><text fill="#000000" font-family="sans-serif" font-size="14" lengthAdjust="spacing" textLength="95.6484" x="737.5" y="89.6436">ProgramStudi</text><line style="stroke:#181818;stroke-width:0.5;" x1="709.5" x2="835.1484" y1="100.7969" y2="100.7969"/><ellipse cx="719.5" cy="114.4453" fill="none" rx="3" ry="3" style="stroke:#038048;stroke-width:1;"/><text fill="#000000" font-family="sans-serif" font-size="14" lengthAdjust="spacing" textLength="85.9004" x="728.5" y="117.792">String nama</text><line style="stroke:#181818;stroke-width:0.5;" x1="709.5" x2="835.1484" y1="125.0938" y2="125.0938"/></g><!--class Person--><g class="entity" data-entity="Person" data-source-line="28" data-uid="ent0007" id="entity_Person"><rect fill="#F1F1F1" height="80.5938" rx="2.5" ry="2.5" style="stroke:#181818;stroke-width:0.5;" width="165.3848" x="28" y="217.2969"/><ellipse cx="82.6704" cy="233.2969" fill="#ADD1B2" rx="11" ry="11" style="stroke:#181818;stroke-width:1;"/><path d="M85.6392,238.9375 Q85.061,239.2344 84.4204,239.375 Q83.7798,239.5313 83.0767,239.5313 Q80.5767,239.5313 79.2485,237.8906 Q77.936,236.2344 77.936,233.1094 Q77.936,229.9844 79.2485,228.3281 Q80.5767,226.6719 83.0767,226.6719 Q83.7798,226.6719 84.4204,226.8281 Q85.0767,226.9844 85.6392,227.2813 L85.6392,230 Q85.0142,229.4219 84.4204,229.1563 Q83.8267,228.875 83.2017,228.875 Q81.8579,228.875 81.1704,229.9531 Q80.4829,231.0156 80.4829,233.1094 Q80.4829,235.2031 81.1704,236.2813 Q81.8579,237.3438 83.2017,237.3438 Q83.8267,237.3438 84.4204,237.0781 Q85.0142,236.7969 85.6392,236.2188 L85.6392,238.9375 Z " fill="#000000"/><text fill="#000000" font-family="sans-serif" font-size="14" lengthAdjust="spacing" textLength="47.5439" x="103.1704" y="238.1436">Person</text><line style="stroke:#181818;stroke-width:0.5;" x1="29" x2="192.3848" y1="249.2969" y2="249.2969"/><ellipse cx="39" cy="262.9453" fill="none" rx="3" ry="3" style="stroke:#038048;stroke-width:1;"/><text fill="#000000" font-family="sans-serif" font-size="14" lengthAdjust="spacing" textLength="85.9004" x="48" y="266.292">String nama</text><line style="stroke:#181818;stroke-width:0.5;" x1="29" x2="192.3848" y1="273.5938" y2="273.5938"/><ellipse cx="39" cy="287.2422" fill="#84BE84" rx="3" ry="3" style="stroke:#038048;stroke-width:1;"/><text fill="#000000" font-family="sans-serif" font-size="14" lengthAdjust="spacing" textLength="139.3848" x="48" y="290.5889">Profile profile (O2O)</text></g><!--class LokasiRuangan--><g class="entity" data-entity="LokasiRuangan" data-source-line="33" data-uid="ent0008" id="entity_LokasiRuangan"><rect fill="#F1F1F1" height="64.2969" rx="2.5" ry="2.5" style="stroke:#181818;stroke-width:0.5;" width="138.627" x="228" y="225.7969"/><ellipse cx="243" cy="241.7969" fill="#ADD1B2" rx="11" ry="11" style="stroke:#181818;stroke-width:1;"/><path d="M245.9688,247.4375 Q245.3906,247.7344 244.75,247.875 Q244.1094,248.0313 243.4063,248.0313 Q240.9063,248.0313 239.5781,246.3906 Q238.2656,244.7344 238.2656,241.6094 Q238.2656,238.4844 239.5781,236.8281 Q240.9063,235.1719 243.4063,235.1719 Q244.1094,235.1719 244.75,235.3281 Q245.4063,235.4844 245.9688,235.7813 L245.9688,238.5 Q245.3438,237.9219 244.75,237.6563 Q244.1563,237.375 243.5313,237.375 Q242.1875,237.375 241.5,238.4531 Q240.8125,239.5156 240.8125,241.6094 Q240.8125,243.7031 241.5,244.7813 Q242.1875,245.8438 243.5313,245.8438 Q244.1563,245.8438 244.75,245.5781 Q245.3438,245.2969 245.9688,244.7188 L245.9688,247.4375 Z " fill="#000000"/><text fill="#000000" font-family="sans-serif" font-size="14" lengthAdjust="spacing" textLength="106.627" x="257" y="246.6436">LokasiRuangan</text><line style="stroke:#181818;stroke-width:0.5;" x1="229" x2="365.627" y1="257.7969" y2="257.7969"/><ellipse cx="239" cy="271.4453" fill="none" rx="3" ry="3" style="stroke:#038048;stroke-width:1;"/><text fill="#000000" font-family="sans-serif" font-size="14" lengthAdjust="spacing" textLength="85.9004" x="248" y="274.792">String nama</text><line style="stroke:#181818;stroke-width:0.5;" x1="229" x2="365.627" y1="282.0938" y2="282.0938"/></g><!--class MataKuliah--><g class="entity" data-entity="MataKuliah" data-source-line="37" data-uid="ent0009" id="entity_MataKuliah"><rect fill="#F1F1F1" height="80.5938" rx="2.5" ry="2.5" style="stroke:#181818;stroke-width:0.5;" width="111.9004" x="402.5" y="217.2969"/><ellipse cx="418.3499" cy="233.2969" fill="#ADD1B2" rx="11" ry="11" style="stroke:#181818;stroke-width:1;"/><path d="M421.3187,238.9375 Q420.7405,239.2344 420.0999,239.375 Q419.4593,239.5313 418.7562,239.5313 Q416.2562,239.5313 414.928,237.8906 Q413.6155,236.2344 413.6155,233.1094 Q413.6155,229.9844 414.928,228.3281 Q416.2562,226.6719 418.7562,226.6719 Q419.4593,226.6719 420.0999,226.8281 Q420.7562,226.9844 421.3187,227.2813 L421.3187,230 Q420.6937,229.4219 420.0999,229.1563 Q419.5062,228.875 418.8812,228.875 Q417.5374,228.875 416.8499,229.9531 Q416.1624,231.0156 416.1624,233.1094 Q416.1624,235.2031 416.8499,236.2813 Q417.5374,237.3438 418.8812,237.3438 Q419.5062,237.3438 420.0999,237.0781 Q420.6937,236.7969 421.3187,236.2188 L421.3187,238.9375 Z " fill="#000000"/><text fill="#000000" font-family="sans-serif" font-size="14" lengthAdjust="spacing" textLength="78.0117" x="432.5388" y="238.1436">MataKuliah</text><line style="stroke:#181818;stroke-width:0.5;" x1="403.5" x2="513.4004" y1="249.2969" y2="249.2969"/><ellipse cx="413.5" cy="262.9453" fill="none" rx="3" ry="3" style="stroke:#038048;stroke-width:1;"/><text fill="#000000" font-family="sans-serif" font-size="14" lengthAdjust="spacing" textLength="85.9004" x="422.5" y="266.292">String nama</text><ellipse cx="413.5" cy="279.2422" fill="none" rx="3" ry="3" style="stroke:#038048;stroke-width:1;"/><text fill="#000000" font-family="sans-serif" font-size="14" lengthAdjust="spacing" textLength="80.4043" x="422.5" y="282.5889">String kode</text><line style="stroke:#181818;stroke-width:0.5;" x1="403.5" x2="513.4004" y1="289.8906" y2="289.8906"/></g><!--class BidangKeahlian--><g class="entity" data-entity="BidangKeahlian" data-source-line="42" data-uid="ent0010" id="entity_BidangKeahlian"><rect fill="#F1F1F1" height="64.2969" rx="2.5" ry="2.5" style="stroke:#181818;stroke-width:0.5;" width="141.1973" x="550" y="225.7969"/><ellipse cx="565" cy="241.7969" fill="#ADD1B2" rx="11" ry="11" style="stroke:#181818;stroke-width:1;"/><path d="M567.9688,247.4375 Q567.3906,247.7344 566.75,247.875 Q566.1094,248.0313 565.4063,248.0313 Q562.9063,248.0313 561.5781,246.3906 Q560.2656,244.7344 560.2656,241.6094 Q560.2656,238.4844 561.5781,236.8281 Q562.9063,235.1719 565.4063,235.1719 Q566.1094,235.1719 566.75,235.3281 Q567.4063,235.4844 567.9688,235.7813 L567.9688,238.5 Q567.3438,237.9219 566.75,237.6563 Q566.1563,237.375 565.5313,237.375 Q564.1875,237.375 563.5,238.4531 Q562.8125,239.5156 562.8125,241.6094 Q562.8125,243.7031 563.5,244.7813 Q564.1875,245.8438 565.5313,245.8438 Q566.1563,245.8438 566.75,245.5781 Q567.3438,245.2969 567.9688,244.7188 L567.9688,247.4375 Z " fill="#000000"/><text fill="#000000" font-family="sans-serif" font-size="14" lengthAdjust="spacing" textLength="109.1973" x="579" y="246.6436">BidangKeahlian</text><line style="stroke:#181818;stroke-width:0.5;" x1="551" x2="690.1973" y1="257.7969" y2="257.7969"/><ellipse cx="561" cy="271.4453" fill="none" rx="3" ry="3" style="stroke:#038048;stroke-width:1;"/><text fill="#000000" font-family="sans-serif" font-size="14" lengthAdjust="spacing" textLength="85.9004" x="570" y="274.792">String nama</text><line style="stroke:#181818;stroke-width:0.5;" x1="551" x2="690.1973" y1="282.0938" y2="282.0938"/></g><!--class Skill--><g class="entity" data-entity="Skill" data-source-line="46" data-uid="ent0011" id="entity_Skill"><rect fill="#F1F1F1" height="64.2969" rx="2.5" ry="2.5" style="stroke:#181818;stroke-width:0.5;" width="111.9004" x="726.5" y="225.7969"/><ellipse cx="764.5568" cy="241.7969" fill="#ADD1B2" rx="11" ry="11" style="stroke:#181818;stroke-width:1;"/><path d="M767.5255,247.4375 Q766.9474,247.7344 766.3068,247.875 Q765.6662,248.0313 764.963,248.0313 Q762.463,248.0313 761.1349,246.3906 Q759.8224,244.7344 759.8224,241.6094 Q759.8224,238.4844 761.1349,236.8281 Q762.463,235.1719 764.963,235.1719 Q765.6662,235.1719 766.3068,235.3281 Q766.963,235.4844 767.5255,235.7813 L767.5255,238.5 Q766.9005,237.9219 766.3068,237.6563 Q765.713,237.375 765.088,237.375 Q763.7443,237.375 763.0568,238.4531 Q762.3693,239.5156 762.3693,241.6094 Q762.3693,243.7031 763.0568,244.7813 Q763.7443,245.8438 765.088,245.8438 Q765.713,245.8438 766.3068,245.5781 Q766.9005,245.2969 767.5255,244.7188 L767.5255,247.4375 Z " fill="#000000"/><text fill="#000000" font-family="sans-serif" font-size="14" lengthAdjust="spacing" textLength="28.6631" x="783.6805" y="246.6436">Skill</text><line style="stroke:#181818;stroke-width:0.5;" x1="727.5" x2="837.4004" y1="257.7969" y2="257.7969"/><ellipse cx="737.5" cy="271.4453" fill="none" rx="3" ry="3" style="stroke:#038048;stroke-width:1;"/><text fill="#000000" font-family="sans-serif" font-size="14" lengthAdjust="spacing" textLength="85.9004" x="746.5" y="274.792">String nama</text><line style="stroke:#181818;stroke-width:0.5;" x1="727.5" x2="837.4004" y1="282.0938" y2="282.0938"/></g><!--class Alamat--><g class="entity" data-entity="Alamat" data-source-line="50" data-uid="ent0012" id="entity_Alamat"><rect fill="#F1F1F1" height="64.2969" rx="2.5" ry="2.5" style="stroke:#181818;stroke-width:0.5;" width="111.9004" x="54.5" y="358.2969"/><ellipse cx="83.0668" cy="374.2969" fill="#ADD1B2" rx="11" ry="11" style="stroke:#181818;stroke-width:1;"/><path d="M86.0355,379.9375 Q85.4574,380.2344 84.8168,380.375 Q84.1762,380.5313 83.473,380.5313 Q80.973,380.5313 79.6449,378.8906 Q78.3324,377.2344 78.3324,374.1094 Q78.3324,370.9844 79.6449,369.3281 Q80.973,367.6719 83.473,367.6719 Q84.1762,367.6719 84.8168,367.8281 Q85.473,367.9844 86.0355,368.2813 L86.0355,371 Q85.4105,370.4219 84.8168,370.1563 Q84.223,369.875 83.598,369.875 Q82.2543,369.875 81.5668,370.9531 Q80.8793,372.0156 80.8793,374.1094 Q80.8793,376.2031 81.5668,377.2813 Q82.2543,378.3438 83.598,378.3438 Q84.223,378.3438 84.8168,378.0781 Q85.4105,377.7969 86.0355,377.2188 L86.0355,379.9375 Z " fill="#000000"/><text fill="#000000" font-family="sans-serif" font-size="14" lengthAdjust="spacing" textLength="49.752" x="100.0816" y="379.1436">Alamat</text><line style="stroke:#181818;stroke-width:0.5;" x1="55.5" x2="165.4004" y1="390.2969" y2="390.2969"/><ellipse cx="65.5" cy="403.9453" fill="none" rx="3" ry="3" style="stroke:#038048;stroke-width:1;"/><text fill="#000000" font-family="sans-serif" font-size="14" lengthAdjust="spacing" textLength="85.9004" x="74.5" y="407.292">String nama</text><line style="stroke:#181818;stroke-width:0.5;" x1="55.5" x2="165.4004" y1="414.5938" y2="414.5938"/></g><!--class PosisiStruktural--><g class="entity" data-entity="PosisiStruktural" data-source-line="54" data-uid="ent0013" id="entity_PosisiStruktural"><rect fill="#F1F1F1" height="64.2969" rx="2.5" ry="2.5" style="stroke:#181818;stroke-width:0.5;" width="141.0742" x="202" y="358.2969"/><ellipse cx="217" cy="374.2969" fill="#ADD1B2" rx="11" ry="11" style="stroke:#181818;stroke-width:1;"/><path d="M219.9688,379.9375 Q219.3906,380.2344 218.75,380.375 Q218.1094,380.5313 217.4063,380.5313 Q214.9063,380.5313 213.5781,378.8906 Q212.2656,377.2344 212.2656,374.1094 Q212.2656,370.9844 213.5781,369.3281 Q214.9063,367.6719 217.4063,367.6719 Q218.1094,367.6719 218.75,367.8281 Q219.4063,367.9844 219.9688,368.2813 L219.9688,371 Q219.3438,370.4219 218.75,370.1563 Q218.1563,369.875 217.5313,369.875 Q216.1875,369.875 215.5,370.9531 Q214.8125,372.0156 214.8125,374.1094 Q214.8125,376.2031 215.5,377.2813 Q216.1875,378.3438 217.5313,378.3438 Q218.1563,378.3438 218.75,378.0781 Q219.3438,377.7969 219.9688,377.2188 L219.9688,379.9375 Z " fill="#000000"/><text fill="#000000" font-family="sans-serif" font-size="14" lengthAdjust="spacing" textLength="109.0742" x="231" y="379.1436">PosisiStruktural</text><line style="stroke:#181818;stroke-width:0.5;" x1="203" x2="342.0742" y1="390.2969" y2="390.2969"/><ellipse cx="213" cy="403.9453" fill="none" rx="3" ry="3" style="stroke:#038048;stroke-width:1;"/><text fill="#000000" font-family="sans-serif" font-size="14" lengthAdjust="spacing" textLength="85.9004" x="222" y="407.292">String nama</text><line style="stroke:#181818;stroke-width:0.5;" x1="203" x2="342.0742" y1="414.5938" y2="414.5938"/></g><!--class OrganisasiAkademik--><g class="entity" data-entity="OrganisasiAkademik" data-source-line="58" data-uid="ent0014" id="entity_OrganisasiAkademik"><rect fill="#F1F1F1" height="64.2969" rx="2.5" ry="2.5" style="stroke:#181818;stroke-width:0.5;" width="175.459" x="378" y="358.2969"/><ellipse cx="393" cy="374.2969" fill="#ADD1B2" rx="11" ry="11" style="stroke:#181818;stroke-width:1;"/><path d="M395.9688,379.9375 Q395.3906,380.2344 394.75,380.375 Q394.1094,380.5313 393.4063,380.5313 Q390.9063,380.5313 389.5781,378.8906 Q388.2656,377.2344 388.2656,374.1094 Q388.2656,370.9844 389.5781,369.3281 Q390.9063,367.6719 393.4063,367.6719 Q394.1094,367.6719 394.75,367.8281 Q395.4063,367.9844 395.9688,368.2813 L395.9688,371 Q395.3438,370.4219 394.75,370.1563 Q394.1563,369.875 393.5313,369.875 Q392.1875,369.875 391.5,370.9531 Q390.8125,372.0156 390.8125,374.1094 Q390.8125,376.2031 391.5,377.2813 Q392.1875,378.3438 393.5313,378.3438 Q394.1563,378.3438 394.75,378.0781 Q395.3438,377.7969 395.9688,377.2188 L395.9688,379.9375 Z " fill="#000000"/><text fill="#000000" font-family="sans-serif" font-size="14" lengthAdjust="spacing" textLength="143.459" x="407" y="379.1436">OrganisasiAkademik</text><line style="stroke:#181818;stroke-width:0.5;" x1="379" x2="552.459" y1="390.2969" y2="390.2969"/><ellipse cx="389" cy="403.9453" fill="none" rx="3" ry="3" style="stroke:#038048;stroke-width:1;"/><text fill="#000000" font-family="sans-serif" font-size="14" lengthAdjust="spacing" textLength="85.9004" x="398" y="407.292">String nama</text><line style="stroke:#181818;stroke-width:0.5;" x1="379" x2="552.459" y1="414.5938" y2="414.5938"/></g><!--class Organisasi--><g class="entity" data-entity="Organisasi" data-source-line="62" data-uid="ent0015" id="entity_Organisasi"><rect fill="#F1F1F1" height="64.2969" rx="2.5" ry="2.5" style="stroke:#181818;stroke-width:0.5;" width="111.9004" x="588.5" y="358.2969"/><ellipse cx="606.1279" cy="374.2969" fill="#ADD1B2" rx="11" ry="11" style="stroke:#181818;stroke-width:1;"/><path d="M609.0967,379.9375 Q608.5186,380.2344 607.8779,380.375 Q607.2373,380.5313 606.5342,380.5313 Q604.0342,380.5313 602.7061,378.8906 Q601.3936,377.2344 601.3936,374.1094 Q601.3936,370.9844 602.7061,369.3281 Q604.0342,367.6719 606.5342,367.6719 Q607.2373,367.6719 607.8779,367.8281 Q608.5342,367.9844 609.0967,368.2813 L609.0967,371 Q608.4717,370.4219 607.8779,370.1563 Q607.2842,369.875 606.6592,369.875 Q605.3154,369.875 604.6279,370.9531 Q603.9404,372.0156 603.9404,374.1094 Q603.9404,376.2031 604.6279,377.2813 Q605.3154,378.3438 606.6592,378.3438 Q607.2842,378.3438 607.8779,378.0781 Q608.4717,377.7969 609.0967,377.2188 L609.0967,379.9375 Z " fill="#000000"/><text fill="#000000" font-family="sans-serif" font-size="14" lengthAdjust="spacing" textLength="74.0605" x="620.7119" y="379.1436">Organisasi</text><line style="stroke:#181818;stroke-width:0.5;" x1="589.5" x2="699.4004" y1="390.2969" y2="390.2969"/><ellipse cx="599.5" cy="403.9453" fill="none" rx="3" ry="3" style="stroke:#038048;stroke-width:1;"/><text fill="#000000" font-family="sans-serif" font-size="14" lengthAdjust="spacing" textLength="85.9004" x="608.5" y="407.292">String nama</text><line style="stroke:#181818;stroke-width:0.5;" x1="589.5" x2="699.4004" y1="414.5938" y2="414.5938"/></g><!--class PrestasiAkademik--><g class="entity" data-entity="PrestasiAkademik" data-source-line="66" data-uid="ent0016" id="entity_PrestasiAkademik"><rect fill="#F1F1F1" height="64.2969" rx="2.5" ry="2.5" style="stroke:#181818;stroke-width:0.5;" width="156.7559" x="736" y="358.2969"/><ellipse cx="751" cy="374.2969" fill="#ADD1B2" rx="11" ry="11" style="stroke:#181818;stroke-width:1;"/><path d="M753.9688,379.9375 Q753.3906,380.2344 752.75,380.375 Q752.1094,380.5313 751.4063,380.5313 Q748.9063,380.5313 747.5781,378.8906 Q746.2656,377.2344 746.2656,374.1094 Q746.2656,370.9844 747.5781,369.3281 Q748.9063,367.6719 751.4063,367.6719 Q752.1094,367.6719 752.75,367.8281 Q753.4063,367.9844 753.9688,368.2813 L753.9688,371 Q753.3438,370.4219 752.75,370.1563 Q752.1563,369.875 751.5313,369.875 Q750.1875,369.875 749.5,370.9531 Q748.8125,372.0156 748.8125,374.1094 Q748.8125,376.2031 749.5,377.2813 Q750.1875,378.3438 751.5313,378.3438 Q752.1563,378.3438 752.75,378.0781 Q753.3438,377.7969 753.9688,377.2188 L753.9688,379.9375 Z " fill="#000000"/><text fill="#000000" font-family="sans-serif" font-size="14" lengthAdjust="spacing" textLength="124.7559" x="765" y="379.1436">PrestasiAkademik</text><line style="stroke:#181818;stroke-width:0.5;" x1="737" x2="891.7559" y1="390.2969" y2="390.2969"/><ellipse cx="747" cy="403.9453" fill="none" rx="3" ry="3" style="stroke:#038048;stroke-width:1;"/><text fill="#000000" font-family="sans-serif" font-size="14" lengthAdjust="spacing" textLength="85.9004" x="756" y="407.292">String nama</text><line style="stroke:#181818;stroke-width:0.5;" x1="737" x2="891.7559" y1="414.5938" y2="414.5938"/></g><!--class PrestasiNonAkademik--><g class="entity" data-entity="PrestasiNonAkademik" data-source-line="70" data-uid="ent0017" id="entity_PrestasiNonAkademik"><rect fill="#F1F1F1" height="64.2969" rx="2.5" ry="2.5" style="stroke:#181818;stroke-width:0.5;" width="184.667" x="18" y="490.7969"/><ellipse cx="33" cy="506.7969" fill="#ADD1B2" rx="11" ry="11" style="stroke:#181818;stroke-width:1;"/><path d="M35.9688,512.4375 Q35.3906,512.7344 34.75,512.875 Q34.1094,513.0313 33.4063,513.0313 Q30.9063,513.0313 29.5781,511.3906 Q28.2656,509.7344 28.2656,506.6094 Q28.2656,503.4844 29.5781,501.8281 Q30.9063,500.1719 33.4063,500.1719 Q34.1094,500.1719 34.75,500.3281 Q35.4063,500.4844 35.9688,500.7813 L35.9688,503.5 Q35.3438,502.9219 34.75,502.6563 Q34.1563,502.375 33.5313,502.375 Q32.1875,502.375 31.5,503.4531 Q30.8125,504.5156 30.8125,506.6094 Q30.8125,508.7031 31.5,509.7813 Q32.1875,510.8438 33.5313,510.8438 Q34.1563,510.8438 34.75,510.5781 Q35.3438,510.2969 35.9688,509.7188 L35.9688,512.4375 Z " fill="#000000"/><text fill="#000000" font-family="sans-serif" font-size="14" lengthAdjust="spacing" textLength="152.667" x="47" y="511.6436">PrestasiNonAkademik</text><line style="stroke:#181818;stroke-width:0.5;" x1="19" x2="201.667" y1="522.7969" y2="522.7969"/><ellipse cx="29" cy="536.4453" fill="none" rx="3" ry="3" style="stroke:#038048;stroke-width:1;"/><text fill="#000000" font-family="sans-serif" font-size="14" lengthAdjust="spacing" textLength="85.9004" x="38" y="539.792">String nama</text><line style="stroke:#181818;stroke-width:0.5;" x1="19" x2="201.667" y1="547.0938" y2="547.0938"/></g><!--class Sertifikasi--><g class="entity" data-entity="Sertifikasi" data-source-line="74" data-uid="ent0018" id="entity_Sertifikasi"><rect fill="#F1F1F1" height="64.2969" rx="2.5" ry="2.5" style="stroke:#181818;stroke-width:0.5;" width="111.9004" x="237.5" y="490.7969"/><ellipse cx="257.2597" cy="506.7969" fill="#ADD1B2" rx="11" ry="11" style="stroke:#181818;stroke-width:1;"/><path d="M260.2285,512.4375 Q259.6503,512.7344 259.0097,512.875 Q258.3691,513.0313 257.666,513.0313 Q255.166,513.0313 253.8378,511.3906 Q252.5253,509.7344 252.5253,506.6094 Q252.5253,503.4844 253.8378,501.8281 Q255.166,500.1719 257.666,500.1719 Q258.3691,500.1719 259.0097,500.3281 Q259.666,500.4844 260.2285,500.7813 L260.2285,503.5 Q259.6035,502.9219 259.0097,502.6563 Q258.416,502.375 257.791,502.375 Q256.4472,502.375 255.7597,503.4531 Q255.0722,504.5156 255.0722,506.6094 Q255.0722,508.7031 255.7597,509.7813 Q256.4472,510.8438 257.791,510.8438 Q258.416,510.8438 259.0097,510.5781 Q259.6035,510.2969 260.2285,509.7188 L260.2285,512.4375 Z " fill="#000000"/><text fill="#000000" font-family="sans-serif" font-size="14" lengthAdjust="spacing" textLength="69.3232" x="272.3174" y="511.6436">Sertifikasi</text><line style="stroke:#181818;stroke-width:0.5;" x1="238.5" x2="348.4004" y1="522.7969" y2="522.7969"/><ellipse cx="248.5" cy="536.4453" fill="none" rx="3" ry="3" style="stroke:#038048;stroke-width:1;"/><text fill="#000000" font-family="sans-serif" font-size="14" lengthAdjust="spacing" textLength="85.9004" x="257.5" y="539.792">String nama</text><line style="stroke:#181818;stroke-width:0.5;" x1="238.5" x2="348.4004" y1="547.0938" y2="547.0938"/></g><!--class Fasilitas--><g class="entity" data-entity="Fasilitas" data-source-line="78" data-uid="ent0019" id="entity_Fasilitas"><rect fill="#F1F1F1" height="64.2969" rx="2.5" ry="2.5" style="stroke:#181818;stroke-width:0.5;" width="111.9004" x="384.5" y="490.7969"/><ellipse cx="409.8245" cy="506.7969" fill="#ADD1B2" rx="11" ry="11" style="stroke:#181818;stroke-width:1;"/><path d="M412.7933,512.4375 Q412.2151,512.7344 411.5745,512.875 Q410.9339,513.0313 410.2308,513.0313 Q407.7308,513.0313 406.4026,511.3906 Q405.0901,509.7344 405.0901,506.6094 Q405.0901,503.4844 406.4026,501.8281 Q407.7308,500.1719 410.2308,500.1719 Q410.9339,500.1719 411.5745,500.3281 Q412.2308,500.4844 412.7933,500.7813 L412.7933,503.5 Q412.1683,502.9219 411.5745,502.6563 Q410.9808,502.375 410.3558,502.375 Q409.012,502.375 408.3245,503.4531 Q407.637,504.5156 407.637,506.6094 Q407.637,508.7031 408.3245,509.7813 Q409.012,510.8438 410.3558,510.8438 Q410.9808,510.8438 411.5745,510.5781 Q412.1683,510.2969 412.7933,509.7188 L412.7933,512.4375 Z " fill="#000000"/><text fill="#000000" font-family="sans-serif" font-size="14" lengthAdjust="spacing" textLength="56.957" x="426.1188" y="511.6436">Fasilitas</text><line style="stroke:#181818;stroke-width:0.5;" x1="385.5" x2="495.4004" y1="522.7969" y2="522.7969"/><ellipse cx="395.5" cy="536.4453" fill="none" rx="3" ry="3" style="stroke:#038048;stroke-width:1;"/><text fill="#000000" font-family="sans-serif" font-size="14" lengthAdjust="spacing" textLength="85.9004" x="404.5" y="539.792">String nama</text><line style="stroke:#181818;stroke-width:0.5;" x1="385.5" x2="495.4004" y1="547.0938" y2="547.0938"/></g><!--class Pengalaman--><g class="entity" data-entity="Pengalaman" data-source-line="82" data-uid="ent0020" id="entity_Pengalaman"><rect fill="#F1F1F1" height="64.2969" rx="2.5" ry="2.5" style="stroke:#181818;stroke-width:0.5;" width="118.9531" x="532" y="490.7969"/><ellipse cx="547" cy="506.7969" fill="#ADD1B2" rx="11" ry="11" style="stroke:#181818;stroke-width:1;"/><path d="M549.9688,512.4375 Q549.3906,512.7344 548.75,512.875 Q548.1094,513.0313 547.4063,513.0313 Q544.9063,513.0313 543.5781,511.3906 Q542.2656,509.7344 542.2656,506.6094 Q542.2656,503.4844 543.5781,501.8281 Q544.9063,500.1719 547.4063,500.1719 Q548.1094,500.1719 548.75,500.3281 Q549.4063,500.4844 549.9688,500.7813 L549.9688,503.5 Q549.3438,502.9219 548.75,502.6563 Q548.1563,502.375 547.5313,502.375 Q546.1875,502.375 545.5,503.4531 Q544.8125,504.5156 544.8125,506.6094 Q544.8125,508.7031 545.5,509.7813 Q546.1875,510.8438 547.5313,510.8438 Q548.1563,510.8438 548.75,510.5781 Q549.3438,510.2969 549.9688,509.7188 L549.9688,512.4375 Z " fill="#000000"/><text fill="#000000" font-family="sans-serif" font-size="14" lengthAdjust="spacing" textLength="86.9531" x="561" y="511.6436">Pengalaman</text><line style="stroke:#181818;stroke-width:0.5;" x1="533" x2="649.9531" y1="522.7969" y2="522.7969"/><ellipse cx="543" cy="536.4453" fill="none" rx="3" ry="3" style="stroke:#038048;stroke-width:1;"/><text fill="#000000" font-family="sans-serif" font-size="14" lengthAdjust="spacing" textLength="85.9004" x="552" y="539.792">String nama</text><line style="stroke:#181818;stroke-width:0.5;" x1="533" x2="649.9531" y1="547.0938" y2="547.0938"/></g><!--class PersistentDict--><g class="entity" data-entity="PersistentDict" data-source-line="86" data-uid="ent0021" id="entity_PersistentDict"><rect fill="#F1F1F1" height="80.5938" rx="2.5" ry="2.5" style="stroke:#181818;stroke-width:0.5;" width="130.2344" x="686.5" y="482.2969"/><ellipse cx="701.7808" cy="498.2969" fill="#ADD1B2" rx="11" ry="11" style="stroke:#181818;stroke-width:1;"/><path d="M704.7496,503.9375 Q704.1714,504.2344 703.5308,504.375 Q702.8902,504.5313 702.1871,504.5313 Q699.6871,504.5313 698.3589,502.8906 Q697.0464,501.2344 697.0464,498.1094 Q697.0464,494.9844 698.3589,493.3281 Q699.6871,491.6719 702.1871,491.6719 Q702.8902,491.6719 703.5308,491.8281 Q704.1871,491.9844 704.7496,492.2813 L704.7496,495 Q704.1246,494.4219 703.5308,494.1563 Q702.9371,493.875 702.3121,493.875 Q700.9683,493.875 700.2808,494.9531 Q699.5933,496.0156 699.5933,498.1094 Q699.5933,500.2031 700.2808,501.2813 Q700.9683,502.3438 702.3121,502.3438 Q702.9371,502.3438 703.5308,502.0781 Q704.1246,501.7969 704.7496,501.2188 L704.7496,503.9375 Z " fill="#000000"/><text fill="#000000" font-family="sans-serif" font-size="14" lengthAdjust="spacing" textLength="97.6104" x="715.8432" y="503.1436">PersistentDict</text><line style="stroke:#181818;stroke-width:0.5;" x1="687.5" x2="815.7344" y1="514.2969" y2="514.2969"/><ellipse cx="697.5" cy="527.9453" fill="none" rx="3" ry="3" style="stroke:#038048;stroke-width:1;"/><text fill="#000000" font-family="sans-serif" font-size="14" lengthAdjust="spacing" textLength="84.4717" x="706.5" y="531.292">String value</text><line style="stroke:#181818;stroke-width:0.5;" x1="687.5" x2="815.7344" y1="538.5938" y2="538.5938"/><ellipse cx="697.5" cy="552.2422" fill="#84BE84" rx="3" ry="3" style="stroke:#038048;stroke-width:1;"/><text fill="#000000" font-family="sans-serif" font-size="14" lengthAdjust="spacing" textLength="104.2344" x="706.5" y="555.5889">String key (PK)</text></g><!--SRC=[ZLFRJiCm37tlL-Hn4-85yGCRqz1KnYhw0PLPlTPAcao9CmI8VySTkugjtKiQnyV7jrCcDgYUqQ87e-QkH1FKlNeo48AQ45GUcYHeickGcrgNgmmgpEaBrUWnIPPRN8QU97AaeSI6jFfEbBgRMLOCTRG5xDuB-01ppQLhydjVm0O3uzOUEsSKXGAMJ1jCVlOvn-WrXBzKENkobRBGG6jEILfQoL6yRq77e9aDJ1m3_OyxOAQWe-5Br0T8vbqxbvnZsSKaOmdENYnH6De2rNht7ImU5iDZv8kJikajWgt0TcIO0qCQ3K5zCSlErBARay5HARGfGYrnNUIv9cCw_2CZ9dVrxm854bVK75jvNOSkl3HAGPe-5r4Fk7D78g7R-FRGLsTlGEVecLQaeKT5WGpro0XblUqGRO-8I7u6onDQdazRuwSQPEdmv6a39igkVm40]--></g></svg>