<svg xmlns="http://www.w3.org/2000/svg" xmlns:xlink="http://www.w3.org/1999/xlink" contentStyleType="text/css" data-diagram-type="CLASS" height="1077px" preserveAspectRatio="none" style="width:1874px;height:1077px;background:#FFFFFF;" version="1.1" viewBox="0 0 1874 1077" width="1874px" zoomAndPan="magnify"><title>Kegiatan Lab Models - Class Diagram</title><defs/><g><text fill="#000000" font-family="sans-serif" font-size="14" font-weight="bold" lengthAdjust="spacing" textLength="293.501" x="783.7205" y="22.9951">Kegiatan Lab Models - Class Diagram</text><!--class Kegiatan--><g class="entity" data-entity="Kegiatan" data-source-line="6" data-uid="ent0002" id="entity_Kegiatan"><rect fill="#F1F1F1" height="504.3125" rx="2.5" ry="2.5" style="stroke:#181818;stroke-width:0.5;" width="433.292" x="773" y="425.2969"/><ellipse cx="954.3506" cy="441.2969" fill="#ADD1B2" rx="11" ry="11" style="stroke:#181818;stroke-width:1;"/><path d="M957.3193,446.9375 Q956.7412,447.2344 956.1006,447.375 Q955.46,447.5313 954.7568,447.5313 Q952.2568,447.5313 950.9287,445.8906 Q949.6162,444.2344 949.6162,441.1094 Q949.6162,437.9844 950.9287,436.3281 Q952.2568,434.6719 954.7568,434.6719 Q955.46,434.6719 956.1006,434.8281 Q956.7568,434.9844 957.3193,435.2813 L957.3193,438 Q956.6943,437.4219 956.1006,437.1563 Q955.5068,436.875 954.8818,436.875 Q953.5381,436.875 952.8506,437.9531 Q952.1631,439.0156 952.1631,441.1094 Q952.1631,443.2031 952.8506,444.2813 Q953.5381,445.3438 954.8818,445.3438 Q955.5068,445.3438 956.1006,445.0781 Q956.6943,444.7969 957.3193,444.2188 L957.3193,446.9375 Z " fill="#000000"/><text fill="#000000" font-family="sans-serif" font-size="14" lengthAdjust="spacing" textLength="62.0908" x="974.8506" y="446.1436">Kegiatan</text><line style="stroke:#181818;stroke-width:0.5;" x1="774" x2="1205.292" y1="457.2969" y2="457.2969"/><ellipse cx="784" cy="470.9453" fill="none" rx="3" ry="3" style="stroke:#038048;stroke-width:1;"/><text fill="#000000" font-family="sans-serif" font-size="14" lengthAdjust="spacing" textLength="85.9004" x="793" y="474.292">String nama</text><ellipse cx="784" cy="487.2422" fill="none" rx="3" ry="3" style="stroke:#038048;stroke-width:1;"/><text fill="#000000" font-family="sans-serif" font-size="14" lengthAdjust="spacing" textLength="108.8486" x="793" y="490.5889">String deskripsi</text><ellipse cx="784" cy="503.5391" fill="none" rx="3" ry="3" style="stroke:#038048;stroke-width:1;"/><text fill="#000000" font-family="sans-serif" font-size="14" lengthAdjust="spacing" textLength="80.8281" x="793" y="506.8857">Int kategori</text><ellipse cx="784" cy="519.8359" fill="none" rx="3" ry="3" style="stroke:#038048;stroke-width:1;"/><text fill="#000000" font-family="sans-serif" font-size="14" lengthAdjust="spacing" textLength="133.3281" x="793" y="523.1826">String topik_utama</text><ellipse cx="784" cy="536.1328" fill="none" rx="3" ry="3" style="stroke:#038048;stroke-width:1;"/><text fill="#000000" font-family="sans-serif" font-size="14" lengthAdjust="spacing" textLength="106.2236" x="793" y="539.4795">String subtopik</text><ellipse cx="784" cy="552.4297" fill="none" rx="3" ry="3" style="stroke:#038048;stroke-width:1;"/><text fill="#000000" font-family="sans-serif" font-size="14" lengthAdjust="spacing" textLength="133.6084" x="793" y="555.7764">String judul_materi</text><ellipse cx="784" cy="568.7266" fill="none" rx="3" ry="3" style="stroke:#038048;stroke-width:1;"/><text fill="#000000" font-family="sans-serif" font-size="14" lengthAdjust="spacing" textLength="139.3779" x="793" y="572.0732">String format_acara</text><ellipse cx="784" cy="585.0234" fill="none" rx="3" ry="3" style="stroke:#038048;stroke-width:1;"/><text fill="#000000" font-family="sans-serif" font-size="14" lengthAdjust="spacing" textLength="160.9727" x="793" y="588.3701">DateTime waktu_mulai</text><ellipse cx="784" cy="601.3203" fill="none" rx="3" ry="3" style="stroke:#038048;stroke-width:1;"/><text fill="#000000" font-family="sans-serif" font-size="14" lengthAdjust="spacing" textLength="170.2764" x="793" y="604.667">DateTime waktu_selesai</text><ellipse cx="784" cy="617.6172" fill="none" rx="3" ry="3" style="stroke:#038048;stroke-width:1;"/><text fill="#000000" font-family="sans-serif" font-size="14" lengthAdjust="spacing" textLength="259.998" x="793" y="620.9639">PositiveInt jumlah_maksimal_peserta</text><ellipse cx="784" cy="633.9141" fill="none" rx="3" ry="3" style="stroke:#038048;stroke-width:1;"/><text fill="#000000" font-family="sans-serif" font-size="14" lengthAdjust="spacing" textLength="192.8008" x="793" y="637.2607">Decimal biaya_pendaftaran</text><ellipse cx="784" cy="650.2109" fill="none" rx="3" ry="3" style="stroke:#038048;stroke-width:1;"/><text fill="#000000" font-family="sans-serif" font-size="14" lengthAdjust="spacing" textLength="76.5488" x="793" y="653.5576">URL artikel</text><ellipse cx="784" cy="666.5078" fill="none" rx="3" ry="3" style="stroke:#038048;stroke-width:1;"/><text fill="#000000" font-family="sans-serif" font-size="14" lengthAdjust="spacing" textLength="185.0352" x="793" y="669.8545">String sumber_pendanaan</text><ellipse cx="784" cy="682.8047" fill="none" rx="3" ry="3" style="stroke:#038048;stroke-width:1;"/><text fill="#000000" font-family="sans-serif" font-size="14" lengthAdjust="spacing" textLength="147.6563" x="793" y="686.1514">String sponsor_acara</text><ellipse cx="784" cy="699.1016" fill="none" rx="3" ry="3" style="stroke:#038048;stroke-width:1;"/><text fill="#000000" font-family="sans-serif" font-size="14" lengthAdjust="spacing" textLength="146.2207" x="793" y="702.4482">Image logo_kegiatan</text><ellipse cx="784" cy="715.3984" fill="none" rx="3" ry="3" style="stroke:#038048;stroke-width:1;"/><text fill="#000000" font-family="sans-serif" font-size="14" lengthAdjust="spacing" textLength="140.4375" x="793" y="718.7451">Image logo_sponsor</text><ellipse cx="784" cy="731.6953" fill="none" rx="3" ry="3" style="stroke:#038048;stroke-width:1;"/><text fill="#000000" font-family="sans-serif" font-size="14" lengthAdjust="spacing" textLength="89.708" x="793" y="735.042">Int tingkatan</text><line style="stroke:#181818;stroke-width:0.5;" x1="774" x2="1205.292" y1="742.3438" y2="742.3438"/><ellipse cx="784" cy="755.9922" fill="#84BE84" rx="3" ry="3" style="stroke:#038048;stroke-width:1;"/><text fill="#000000" font-family="sans-serif" font-size="14" lengthAdjust="spacing" textLength="287.834" x="793" y="759.3389">PeriodeAkademik periode_akademik (FK)</text><ellipse cx="784" cy="772.2891" fill="#84BE84" rx="3" ry="3" style="stroke:#038048;stroke-width:1;"/><text fill="#000000" font-family="sans-serif" font-size="14" lengthAdjust="spacing" textLength="184.0098" x="793" y="775.6357">LokasiRuangan lokasi (FK)</text><ellipse cx="784" cy="788.5859" fill="#84BE84" rx="3" ry="3" style="stroke:#038048;stroke-width:1;"/><text fill="#000000" font-family="sans-serif" font-size="14" lengthAdjust="spacing" textLength="407.292" x="793" y="791.9326">LaboratoriumRiset laboratorium_riset_penyelenggara (FK)</text><ellipse cx="784" cy="804.8828" fill="#84BE84" rx="3" ry="3" style="stroke:#038048;stroke-width:1;"/><text fill="#000000" font-family="sans-serif" font-size="14" lengthAdjust="spacing" textLength="176.0322" x="793" y="808.2295">Dosen ketua_panitia (FK)</text><ellipse cx="784" cy="821.1797" fill="#84BE84" rx="3" ry="3" style="stroke:#038048;stroke-width:1;"/><text fill="#000000" font-family="sans-serif" font-size="14" lengthAdjust="spacing" textLength="267.0322" x="793" y="824.5264">Dosen dosen_penanggung_jawab (FK)</text><ellipse cx="784" cy="837.4766" fill="#84BE84" rx="3" ry="3" style="stroke:#038048;stroke-width:1;"/><text fill="#000000" font-family="sans-serif" font-size="14" lengthAdjust="spacing" textLength="224.1777" x="793" y="840.8232">Person daftar_pembicara (M2M)</text><ellipse cx="784" cy="853.7734" fill="#84BE84" rx="3" ry="3" style="stroke:#038048;stroke-width:1;"/><text fill="#000000" font-family="sans-serif" font-size="14" lengthAdjust="spacing" textLength="329.1777" x="793" y="857.1201">Institusi daftar_institusi_asal_pembicara (M2M)</text><ellipse cx="784" cy="870.0703" fill="#84BE84" rx="3" ry="3" style="stroke:#038048;stroke-width:1;"/><text fill="#000000" font-family="sans-serif" font-size="14" lengthAdjust="spacing" textLength="158.4502" x="793" y="873.417">Person moderator (FK)</text><ellipse cx="784" cy="886.3672" fill="#84BE84" rx="3" ry="3" style="stroke:#038048;stroke-width:1;"/><text fill="#000000" font-family="sans-serif" font-size="14" lengthAdjust="spacing" textLength="196.0273" x="793" y="889.7139">Berkas daftar_materi (M2M)</text><ellipse cx="784" cy="902.6641" fill="#84BE84" rx="3" ry="3" style="stroke:#038048;stroke-width:1;"/><text fill="#000000" font-family="sans-serif" font-size="14" lengthAdjust="spacing" textLength="240.8711" x="793" y="906.0107">Berkas daftar_dokumentasi (M2M)</text><ellipse cx="784" cy="918.9609" fill="#84BE84" rx="3" ry="3" style="stroke:#038048;stroke-width:1;"/><text fill="#000000" font-family="sans-serif" font-size="14" lengthAdjust="spacing" textLength="151.9492" x="793" y="922.3076">get_kegiatan_status()</text></g><!--class PesertaKegiatan--><g class="entity" data-entity="PesertaKegiatan" data-source-line="37" data-uid="ent0003" id="entity_PesertaKegiatan"><rect fill="#F1F1F1" height="129.4844" rx="2.5" ry="2.5" style="stroke:#181818;stroke-width:0.5;" width="195.5039" x="1365.5" y="210.7969"/><ellipse cx="1402.3817" cy="226.7969" fill="#ADD1B2" rx="11" ry="11" style="stroke:#181818;stroke-width:1;"/><path d="M1405.3504,232.4375 Q1404.7723,232.7344 1404.1317,232.875 Q1403.4911,233.0313 1402.7879,233.0313 Q1400.2879,233.0313 1398.9598,231.3906 Q1397.6473,229.7344 1397.6473,226.6094 Q1397.6473,223.4844 1398.9598,221.8281 Q1400.2879,220.1719 1402.7879,220.1719 Q1403.4911,220.1719 1404.1317,220.3281 Q1404.7879,220.4844 1405.3504,220.7813 L1405.3504,223.5 Q1404.7254,222.9219 1404.1317,222.6563 Q1403.5379,222.375 1402.9129,222.375 Q1401.5692,222.375 1400.8817,223.4531 Q1400.1942,224.5156 1400.1942,226.6094 Q1400.1942,228.7031 1400.8817,229.7813 Q1401.5692,230.8438 1402.9129,230.8438 Q1403.5379,230.8438 1404.1317,230.5781 Q1404.7254,230.2969 1405.3504,229.7188 L1405.3504,232.4375 Z " fill="#000000"/><text fill="#000000" font-family="sans-serif" font-size="14" lengthAdjust="spacing" textLength="114.8779" x="1421.2443" y="231.6436">PesertaKegiatan</text><line style="stroke:#181818;stroke-width:0.5;" x1="1366.5" x2="1560.0039" y1="242.7969" y2="242.7969"/><ellipse cx="1376.5" cy="256.4453" fill="none" rx="3" ry="3" style="stroke:#038048;stroke-width:1;"/><text fill="#000000" font-family="sans-serif" font-size="14" lengthAdjust="spacing" textLength="89.2432" x="1385.5" y="259.792">Bool is_hadir</text><line style="stroke:#181818;stroke-width:0.5;" x1="1366.5" x2="1560.0039" y1="267.0938" y2="267.0938"/><ellipse cx="1376.5" cy="280.7422" fill="#84BE84" rx="3" ry="3" style="stroke:#038048;stroke-width:1;"/><text fill="#000000" font-family="sans-serif" font-size="14" lengthAdjust="spacing" textLength="125.6719" x="1385.5" y="284.0889">Profile profile (FK)</text><ellipse cx="1376.5" cy="297.0391" fill="#84BE84" rx="3" ry="3" style="stroke:#038048;stroke-width:1;"/><text fill="#000000" font-family="sans-serif" font-size="14" lengthAdjust="spacing" textLength="160.166" x="1385.5" y="300.3857">Kegiatan kegiatan (FK)</text><ellipse cx="1376.5" cy="313.3359" fill="#84BE84" rx="3" ry="3" style="stroke:#038048;stroke-width:1;"/><text fill="#000000" font-family="sans-serif" font-size="14" lengthAdjust="spacing" textLength="147.0479" x="1385.5" y="316.6826">Berkas sertifikat (FK)</text><ellipse cx="1376.5" cy="329.6328" fill="#84BE84" rx="3" ry="3" style="stroke:#038048;stroke-width:1;"/><text fill="#000000" font-family="sans-serif" font-size="14" lengthAdjust="spacing" textLength="169.5039" x="1385.5" y="332.9795">Berkas bukti_absen (FK)</text></g><!--class Pertanyaan--><g class="entity" data-entity="Pertanyaan" data-source-line="45" data-uid="ent0004" id="entity_Pertanyaan"><rect fill="#F1F1F1" height="80.5938" rx="2.5" ry="2.5" style="stroke:#181818;stroke-width:0.5;" width="299.1846" x="1314" y="44.2969"/><ellipse cx="1419.3076" cy="60.2969" fill="#ADD1B2" rx="11" ry="11" style="stroke:#181818;stroke-width:1;"/><path d="M1422.2764,65.9375 Q1421.6982,66.2344 1421.0576,66.375 Q1420.417,66.5313 1419.7139,66.5313 Q1417.2139,66.5313 1415.8857,64.8906 Q1414.5732,63.2344 1414.5732,60.1094 Q1414.5732,56.9844 1415.8857,55.3281 Q1417.2139,53.6719 1419.7139,53.6719 Q1420.417,53.6719 1421.0576,53.8281 Q1421.7139,53.9844 1422.2764,54.2813 L1422.2764,57 Q1421.6514,56.4219 1421.0576,56.1563 Q1420.4639,55.875 1419.8389,55.875 Q1418.4951,55.875 1417.8076,56.9531 Q1417.1201,58.0156 1417.1201,60.1094 Q1417.1201,62.2031 1417.8076,63.2813 Q1418.4951,64.3438 1419.8389,64.3438 Q1420.4639,64.3438 1421.0576,64.0781 Q1421.6514,63.7969 1422.2764,63.2188 L1422.2764,65.9375 Z " fill="#000000"/><text fill="#000000" font-family="sans-serif" font-size="14" lengthAdjust="spacing" textLength="80.0693" x="1439.8076" y="65.1436">Pertanyaan</text><line style="stroke:#181818;stroke-width:0.5;" x1="1315" x2="1612.1846" y1="76.2969" y2="76.2969"/><ellipse cx="1325" cy="89.9453" fill="none" rx="3" ry="3" style="stroke:#038048;stroke-width:1;"/><text fill="#000000" font-family="sans-serif" font-size="14" lengthAdjust="spacing" textLength="126.7451" x="1334" y="93.292">String pertanyaan</text><line style="stroke:#181818;stroke-width:0.5;" x1="1315" x2="1612.1846" y1="100.5938" y2="100.5938"/><ellipse cx="1325" cy="114.2422" fill="#84BE84" rx="3" ry="3" style="stroke:#038048;stroke-width:1;"/><text fill="#000000" font-family="sans-serif" font-size="14" lengthAdjust="spacing" textLength="273.1846" x="1334" y="117.5889">PesertaKegiatan peserta_kegiatan (FK)</text></g><!--class Evaluasi--><g class="entity" data-entity="Evaluasi" data-source-line="50" data-uid="ent0005" id="entity_Evaluasi"><rect fill="#F1F1F1" height="145.7813" rx="2.5" ry="2.5" style="stroke:#181818;stroke-width:0.5;" width="186.166" x="896.5" y="202.2969"/><ellipse cx="956.2153" cy="218.2969" fill="#ADD1B2" rx="11" ry="11" style="stroke:#181818;stroke-width:1;"/><path d="M959.1841,223.9375 Q958.606,224.2344 957.9653,224.375 Q957.3247,224.5313 956.6216,224.5313 Q954.1216,224.5313 952.7935,222.8906 Q951.481,221.2344 951.481,218.1094 Q951.481,214.9844 952.7935,213.3281 Q954.1216,211.6719 956.6216,211.6719 Q957.3247,211.6719 957.9653,211.8281 Q958.6216,211.9844 959.1841,212.2813 L959.1841,215 Q958.5591,214.4219 957.9653,214.1563 Q957.3716,213.875 956.7466,213.875 Q955.4028,213.875 954.7153,214.9531 Q954.0278,216.0156 954.0278,218.1094 Q954.0278,220.2031 954.7153,221.2813 Q955.4028,222.3438 956.7466,222.3438 Q957.3716,222.3438 957.9653,222.0781 Q958.5591,221.7969 959.1841,221.2188 L959.1841,223.9375 Z " fill="#000000"/><text fill="#000000" font-family="sans-serif" font-size="14" lengthAdjust="spacing" textLength="58.2354" x="976.7153" y="223.1436">Evaluasi</text><line style="stroke:#181818;stroke-width:0.5;" x1="897.5" x2="1081.666" y1="234.2969" y2="234.2969"/><ellipse cx="907.5" cy="247.9453" fill="none" rx="3" ry="3" style="stroke:#038048;stroke-width:1;"/><text fill="#000000" font-family="sans-serif" font-size="14" lengthAdjust="spacing" textLength="108.8486" x="916.5" y="251.292">String deskripsi</text><ellipse cx="907.5" cy="264.2422" fill="none" rx="3" ry="3" style="stroke:#038048;stroke-width:1;"/><text fill="#000000" font-family="sans-serif" font-size="14" lengthAdjust="spacing" textLength="160.0293" x="916.5" y="267.5889">String catatan_penting</text><ellipse cx="907.5" cy="280.5391" fill="none" rx="3" ry="3" style="stroke:#038048;stroke-width:1;"/><text fill="#000000" font-family="sans-serif" font-size="14" lengthAdjust="spacing" textLength="81.4707" x="916.5" y="283.8857">String kritik</text><ellipse cx="907.5" cy="296.8359" fill="none" rx="3" ry="3" style="stroke:#038048;stroke-width:1;"/><text fill="#000000" font-family="sans-serif" font-size="14" lengthAdjust="spacing" textLength="156.2559" x="916.5" y="300.1826">String saran_masukan</text><ellipse cx="907.5" cy="313.1328" fill="none" rx="3" ry="3" style="stroke:#038048;stroke-width:1;"/><text fill="#000000" font-family="sans-serif" font-size="14" lengthAdjust="spacing" textLength="145.2158" x="916.5" y="316.4795">PositiveInt kepuasan</text><line style="stroke:#181818;stroke-width:0.5;" x1="897.5" x2="1081.666" y1="323.7813" y2="323.7813"/><ellipse cx="907.5" cy="337.4297" fill="#84BE84" rx="3" ry="3" style="stroke:#038048;stroke-width:1;"/><text fill="#000000" font-family="sans-serif" font-size="14" lengthAdjust="spacing" textLength="160.166" x="916.5" y="340.7764">Kegiatan kegiatan (FK)</text></g><!--class PeriodeAkademik--><g class="entity" data-entity="PeriodeAkademik" data-source-line="60" data-uid="ent0006" id="entity_PeriodeAkademik"><rect fill="#F1F1F1" height="64.4453" rx="2.5" ry="2.5" style="stroke:#181818;stroke-width:0.5;" width="154.165" x="1269.5" y="1006.2969"/><ellipse cx="1284.5" cy="1022.2969" fill="#ADD1B2" rx="11" ry="11" style="stroke:#181818;stroke-width:1;"/><path d="M1287.4688,1027.9375 Q1286.8906,1028.2344 1286.25,1028.375 Q1285.6094,1028.5313 1284.9063,1028.5313 Q1282.4063,1028.5313 1281.0781,1026.8906 Q1279.7656,1025.2344 1279.7656,1022.1094 Q1279.7656,1018.9844 1281.0781,1017.3281 Q1282.4063,1015.6719 1284.9063,1015.6719 Q1285.6094,1015.6719 1286.25,1015.8281 Q1286.9063,1015.9844 1287.4688,1016.2813 L1287.4688,1019 Q1286.8438,1018.4219 1286.25,1018.1563 Q1285.6563,1017.875 1285.0313,1017.875 Q1283.6875,1017.875 1283,1018.9531 Q1282.3125,1020.0156 1282.3125,1022.1094 Q1282.3125,1024.2031 1283,1025.2813 Q1283.6875,1026.3438 1285.0313,1026.3438 Q1285.6563,1026.3438 1286.25,1026.0781 Q1286.8438,1025.7969 1287.4688,1025.2188 L1287.4688,1027.9375 Z " fill="#000000"/><text fill="#000000" font-family="sans-serif" font-size="14" lengthAdjust="spacing" textLength="122.165" x="1298.5" y="1027.1436">PeriodeAkademik</text><line style="stroke:#181818;stroke-width:0.5;" x1="1270.5" x2="1422.665" y1="1038.2969" y2="1038.2969"/><line style="stroke:#181818;stroke-width:1;stroke-dasharray:1.0,2.0;" x1="1270.5" x2="1323.2617" y1="1054.4453" y2="1054.4453"/><text fill="#000000" font-family="sans-serif" font-size="14" lengthAdjust="spacing" textLength="46.6416" x="1323.2617" y="1058.792">details</text><line style="stroke:#181818;stroke-width:1;stroke-dasharray:1.0,2.0;" x1="1369.9033" x2="1422.665" y1="1054.4453" y2="1054.4453"/></g><!--class LokasiRuangan--><g class="entity" data-entity="LokasiRuangan" data-source-line="63" data-uid="ent0007" id="entity_LokasiRuangan"><rect fill="#F1F1F1" height="64.4453" rx="2.5" ry="2.5" style="stroke:#181818;stroke-width:0.5;" width="138.627" x="7" y="1006.2969"/><ellipse cx="22" cy="1022.2969" fill="#ADD1B2" rx="11" ry="11" style="stroke:#181818;stroke-width:1;"/><path d="M24.9688,1027.9375 Q24.3906,1028.2344 23.75,1028.375 Q23.1094,1028.5313 22.4063,1028.5313 Q19.9063,1028.5313 18.5781,1026.8906 Q17.2656,1025.2344 17.2656,1022.1094 Q17.2656,1018.9844 18.5781,1017.3281 Q19.9063,1015.6719 22.4063,1015.6719 Q23.1094,1015.6719 23.75,1015.8281 Q24.4063,1015.9844 24.9688,1016.2813 L24.9688,1019 Q24.3438,1018.4219 23.75,1018.1563 Q23.1563,1017.875 22.5313,1017.875 Q21.1875,1017.875 20.5,1018.9531 Q19.8125,1020.0156 19.8125,1022.1094 Q19.8125,1024.2031 20.5,1025.2813 Q21.1875,1026.3438 22.5313,1026.3438 Q23.1563,1026.3438 23.75,1026.0781 Q24.3438,1025.7969 24.9688,1025.2188 L24.9688,1027.9375 Z " fill="#000000"/><text fill="#000000" font-family="sans-serif" font-size="14" lengthAdjust="spacing" textLength="106.627" x="36" y="1027.1436">LokasiRuangan</text><line style="stroke:#181818;stroke-width:0.5;" x1="8" x2="144.627" y1="1038.2969" y2="1038.2969"/><line style="stroke:#181818;stroke-width:1;stroke-dasharray:1.0,2.0;" x1="8" x2="52.9927" y1="1054.4453" y2="1054.4453"/><text fill="#000000" font-family="sans-serif" font-size="14" lengthAdjust="spacing" textLength="46.6416" x="52.9927" y="1058.792">details</text><line style="stroke:#181818;stroke-width:1;stroke-dasharray:1.0,2.0;" x1="99.6343" x2="144.627" y1="1054.4453" y2="1054.4453"/></g><!--class LaboratoriumRiset--><g class="entity" data-entity="LaboratoriumRiset" data-source-line="66" data-uid="ent0008" id="entity_LaboratoriumRiset"><rect fill="#F1F1F1" height="64.4453" rx="2.5" ry="2.5" style="stroke:#181818;stroke-width:0.5;" width="161.3906" x="181" y="1006.2969"/><ellipse cx="196" cy="1022.2969" fill="#ADD1B2" rx="11" ry="11" style="stroke:#181818;stroke-width:1;"/><path d="M198.9688,1027.9375 Q198.3906,1028.2344 197.75,1028.375 Q197.1094,1028.5313 196.4063,1028.5313 Q193.9063,1028.5313 192.5781,1026.8906 Q191.2656,1025.2344 191.2656,1022.1094 Q191.2656,1018.9844 192.5781,1017.3281 Q193.9063,1015.6719 196.4063,1015.6719 Q197.1094,1015.6719 197.75,1015.8281 Q198.4063,1015.9844 198.9688,1016.2813 L198.9688,1019 Q198.3438,1018.4219 197.75,1018.1563 Q197.1563,1017.875 196.5313,1017.875 Q195.1875,1017.875 194.5,1018.9531 Q193.8125,1020.0156 193.8125,1022.1094 Q193.8125,1024.2031 194.5,1025.2813 Q195.1875,1026.3438 196.5313,1026.3438 Q197.1563,1026.3438 197.75,1026.0781 Q198.3438,1025.7969 198.9688,1025.2188 L198.9688,1027.9375 Z " fill="#000000"/><text fill="#000000" font-family="sans-serif" font-size="14" lengthAdjust="spacing" textLength="129.3906" x="210" y="1027.1436">LaboratoriumRiset</text><line style="stroke:#181818;stroke-width:0.5;" x1="182" x2="341.3906" y1="1038.2969" y2="1038.2969"/><line style="stroke:#181818;stroke-width:1;stroke-dasharray:1.0,2.0;" x1="182" x2="238.3745" y1="1054.4453" y2="1054.4453"/><text fill="#000000" font-family="sans-serif" font-size="14" lengthAdjust="spacing" textLength="46.6416" x="238.3745" y="1058.792">details</text><line style="stroke:#181818;stroke-width:1;stroke-dasharray:1.0,2.0;" x1="285.0161" x2="341.3906" y1="1054.4453" y2="1054.4453"/></g><!--class Dosen--><g class="entity" data-entity="Dosen" data-source-line="69" data-uid="ent0009" id="entity_Dosen"><rect fill="#F1F1F1" height="64.4453" rx="2.5" ry="2.5" style="stroke:#181818;stroke-width:0.5;" width="76.126" x="488.5" y="1006.2969"/><ellipse cx="503.5" cy="1022.2969" fill="#ADD1B2" rx="11" ry="11" style="stroke:#181818;stroke-width:1;"/><path d="M506.4688,1027.9375 Q505.8906,1028.2344 505.25,1028.375 Q504.6094,1028.5313 503.9063,1028.5313 Q501.4063,1028.5313 500.0781,1026.8906 Q498.7656,1025.2344 498.7656,1022.1094 Q498.7656,1018.9844 500.0781,1017.3281 Q501.4063,1015.6719 503.9063,1015.6719 Q504.6094,1015.6719 505.25,1015.8281 Q505.9063,1015.9844 506.4688,1016.2813 L506.4688,1019 Q505.8438,1018.4219 505.25,1018.1563 Q504.6563,1017.875 504.0313,1017.875 Q502.6875,1017.875 502,1018.9531 Q501.3125,1020.0156 501.3125,1022.1094 Q501.3125,1024.2031 502,1025.2813 Q502.6875,1026.3438 504.0313,1026.3438 Q504.6563,1026.3438 505.25,1026.0781 Q505.8438,1025.7969 506.4688,1025.2188 L506.4688,1027.9375 Z " fill="#000000"/><text fill="#000000" font-family="sans-serif" font-size="14" lengthAdjust="spacing" textLength="44.126" x="517.5" y="1027.1436">Dosen</text><line style="stroke:#181818;stroke-width:0.5;" x1="489.5" x2="563.626" y1="1038.2969" y2="1038.2969"/><line style="stroke:#181818;stroke-width:1;stroke-dasharray:1.0,2.0;" x1="489.5" x2="503.2422" y1="1054.4453" y2="1054.4453"/><text fill="#000000" font-family="sans-serif" font-size="14" lengthAdjust="spacing" textLength="46.6416" x="503.2422" y="1058.792">details</text><line style="stroke:#181818;stroke-width:1;stroke-dasharray:1.0,2.0;" x1="549.8838" x2="563.626" y1="1054.4453" y2="1054.4453"/></g><!--class Person--><g class="entity" data-entity="Person" data-source-line="72" data-uid="ent0010" id="entity_Person"><rect fill="#F1F1F1" height="64.4453" rx="2.5" ry="2.5" style="stroke:#181818;stroke-width:0.5;" width="79.5439" x="866.5" y="1006.2969"/><ellipse cx="881.5" cy="1022.2969" fill="#ADD1B2" rx="11" ry="11" style="stroke:#181818;stroke-width:1;"/><path d="M884.4688,1027.9375 Q883.8906,1028.2344 883.25,1028.375 Q882.6094,1028.5313 881.9063,1028.5313 Q879.4063,1028.5313 878.0781,1026.8906 Q876.7656,1025.2344 876.7656,1022.1094 Q876.7656,1018.9844 878.0781,1017.3281 Q879.4063,1015.6719 881.9063,1015.6719 Q882.6094,1015.6719 883.25,1015.8281 Q883.9063,1015.9844 884.4688,1016.2813 L884.4688,1019 Q883.8438,1018.4219 883.25,1018.1563 Q882.6563,1017.875 882.0313,1017.875 Q880.6875,1017.875 880,1018.9531 Q879.3125,1020.0156 879.3125,1022.1094 Q879.3125,1024.2031 880,1025.2813 Q880.6875,1026.3438 882.0313,1026.3438 Q882.6563,1026.3438 883.25,1026.0781 Q883.8438,1025.7969 884.4688,1025.2188 L884.4688,1027.9375 Z " fill="#000000"/><text fill="#000000" font-family="sans-serif" font-size="14" lengthAdjust="spacing" textLength="47.5439" x="895.5" y="1027.1436">Person</text><line style="stroke:#181818;stroke-width:0.5;" x1="867.5" x2="945.0439" y1="1038.2969" y2="1038.2969"/><line style="stroke:#181818;stroke-width:1;stroke-dasharray:1.0,2.0;" x1="867.5" x2="882.9512" y1="1054.4453" y2="1054.4453"/><text fill="#000000" font-family="sans-serif" font-size="14" lengthAdjust="spacing" textLength="46.6416" x="882.9512" y="1058.792">details</text><line style="stroke:#181818;stroke-width:1;stroke-dasharray:1.0,2.0;" x1="929.5928" x2="945.0439" y1="1054.4453" y2="1054.4453"/></g><!--class Institusi--><g class="entity" data-entity="Institusi" data-source-line="75" data-uid="ent0011" id="entity_Institusi"><rect fill="#F1F1F1" height="64.4453" rx="2.5" ry="2.5" style="stroke:#181818;stroke-width:0.5;" width="87.2207" x="1056" y="1006.2969"/><ellipse cx="1071" cy="1022.2969" fill="#ADD1B2" rx="11" ry="11" style="stroke:#181818;stroke-width:1;"/><path d="M1073.9688,1027.9375 Q1073.3906,1028.2344 1072.75,1028.375 Q1072.1094,1028.5313 1071.4063,1028.5313 Q1068.9063,1028.5313 1067.5781,1026.8906 Q1066.2656,1025.2344 1066.2656,1022.1094 Q1066.2656,1018.9844 1067.5781,1017.3281 Q1068.9063,1015.6719 1071.4063,1015.6719 Q1072.1094,1015.6719 1072.75,1015.8281 Q1073.4063,1015.9844 1073.9688,1016.2813 L1073.9688,1019 Q1073.3438,1018.4219 1072.75,1018.1563 Q1072.1563,1017.875 1071.5313,1017.875 Q1070.1875,1017.875 1069.5,1018.9531 Q1068.8125,1020.0156 1068.8125,1022.1094 Q1068.8125,1024.2031 1069.5,1025.2813 Q1070.1875,1026.3438 1071.5313,1026.3438 Q1072.1563,1026.3438 1072.75,1026.0781 Q1073.3438,1025.7969 1073.9688,1025.2188 L1073.9688,1027.9375 Z " fill="#000000"/><text fill="#000000" font-family="sans-serif" font-size="14" lengthAdjust="spacing" textLength="55.2207" x="1085" y="1027.1436">Institusi</text><line style="stroke:#181818;stroke-width:0.5;" x1="1057" x2="1142.2207" y1="1038.2969" y2="1038.2969"/><line style="stroke:#181818;stroke-width:1;stroke-dasharray:1.0,2.0;" x1="1057" x2="1076.2896" y1="1054.4453" y2="1054.4453"/><text fill="#000000" font-family="sans-serif" font-size="14" lengthAdjust="spacing" textLength="46.6416" x="1076.2896" y="1058.792">details</text><line style="stroke:#181818;stroke-width:1;stroke-dasharray:1.0,2.0;" x1="1122.9312" x2="1142.2207" y1="1054.4453" y2="1054.4453"/></g><!--class Berkas--><g class="entity" data-entity="Berkas" data-source-line="78" data-uid="ent0012" id="entity_Berkas"><rect fill="#F1F1F1" height="64.4453" rx="2.5" ry="2.5" style="stroke:#181818;stroke-width:0.5;" width="79.9541" x="1590.5" y="1006.2969"/><ellipse cx="1605.5" cy="1022.2969" fill="#ADD1B2" rx="11" ry="11" style="stroke:#181818;stroke-width:1;"/><path d="M1608.4688,1027.9375 Q1607.8906,1028.2344 1607.25,1028.375 Q1606.6094,1028.5313 1605.9063,1028.5313 Q1603.4063,1028.5313 1602.0781,1026.8906 Q1600.7656,1025.2344 1600.7656,1022.1094 Q1600.7656,1018.9844 1602.0781,1017.3281 Q1603.4063,1015.6719 1605.9063,1015.6719 Q1606.6094,1015.6719 1607.25,1015.8281 Q1607.9063,1015.9844 1608.4688,1016.2813 L1608.4688,1019 Q1607.8438,1018.4219 1607.25,1018.1563 Q1606.6563,1017.875 1606.0313,1017.875 Q1604.6875,1017.875 1604,1018.9531 Q1603.3125,1020.0156 1603.3125,1022.1094 Q1603.3125,1024.2031 1604,1025.2813 Q1604.6875,1026.3438 1606.0313,1026.3438 Q1606.6563,1026.3438 1607.25,1026.0781 Q1607.8438,1025.7969 1608.4688,1025.2188 L1608.4688,1027.9375 Z " fill="#000000"/><text fill="#000000" font-family="sans-serif" font-size="14" lengthAdjust="spacing" textLength="47.9541" x="1619.5" y="1027.1436">Berkas</text><line style="stroke:#181818;stroke-width:0.5;" x1="1591.5" x2="1669.4541" y1="1038.2969" y2="1038.2969"/><line style="stroke:#181818;stroke-width:1;stroke-dasharray:1.0,2.0;" x1="1591.5" x2="1607.1563" y1="1054.4453" y2="1054.4453"/><text fill="#000000" font-family="sans-serif" font-size="14" lengthAdjust="spacing" textLength="46.6416" x="1607.1563" y="1058.792">details</text><line style="stroke:#181818;stroke-width:1;stroke-dasharray:1.0,2.0;" x1="1653.7979" x2="1669.4541" y1="1054.4453" y2="1054.4453"/></g><!--class Profile--><g class="entity" data-entity="Profile" data-source-line="81" data-uid="ent0013" id="entity_Profile"><rect fill="#F1F1F1" height="64.4453" rx="2.5" ry="2.5" style="stroke:#181818;stroke-width:0.5;" width="76.085" x="1425.5" y="645.2969"/><ellipse cx="1440.5" cy="661.2969" fill="#ADD1B2" rx="11" ry="11" style="stroke:#181818;stroke-width:1;"/><path d="M1443.4688,666.9375 Q1442.8906,667.2344 1442.25,667.375 Q1441.6094,667.5313 1440.9063,667.5313 Q1438.4063,667.5313 1437.0781,665.8906 Q1435.7656,664.2344 1435.7656,661.1094 Q1435.7656,657.9844 1437.0781,656.3281 Q1438.4063,654.6719 1440.9063,654.6719 Q1441.6094,654.6719 1442.25,654.8281 Q1442.9063,654.9844 1443.4688,655.2813 L1443.4688,658 Q1442.8438,657.4219 1442.25,657.1563 Q1441.6563,656.875 1441.0313,656.875 Q1439.6875,656.875 1439,657.9531 Q1438.3125,659.0156 1438.3125,661.1094 Q1438.3125,663.2031 1439,664.2813 Q1439.6875,665.3438 1441.0313,665.3438 Q1441.6563,665.3438 1442.25,665.0781 Q1442.8438,664.7969 1443.4688,664.2188 L1443.4688,666.9375 Z " fill="#000000"/><text fill="#000000" font-family="sans-serif" font-size="14" lengthAdjust="spacing" textLength="44.085" x="1454.5" y="666.1436">Profile</text><line style="stroke:#181818;stroke-width:0.5;" x1="1426.5" x2="1500.585" y1="677.2969" y2="677.2969"/><line style="stroke:#181818;stroke-width:1;stroke-dasharray:1.0,2.0;" x1="1426.5" x2="1440.2217" y1="693.4453" y2="693.4453"/><text fill="#000000" font-family="sans-serif" font-size="14" lengthAdjust="spacing" textLength="46.6416" x="1440.2217" y="697.792">details</text><line style="stroke:#181818;stroke-width:1;stroke-dasharray:1.0,2.0;" x1="1486.8633" x2="1500.585" y1="693.4453" y2="693.4453"/></g><!--reverse link Kegiatan to PeriodeAkademik--><g class="link" data-entity-1="Kegiatan" data-entity-2="PeriodeAkademik" data-source-line="89" data-uid="lnk14" id="link_Kegiatan_PeriodeAkademik"><path codeLine="89" d="M1214.7291,875.4273 C1245.1891,905.2173 1266.66,928.1169 1293.5,959.2969 C1306,973.8169 1318.14,991.3569 1327.65,1006.1169" fill="none" id="Kegiatan-backto-PeriodeAkademik" style="stroke:#181818;stroke-width:1;"/><polygon fill="none" points="1206.15,867.0369,1207.6428,874.0918,1214.7291,875.4273,1213.2364,868.3724,1206.15,867.0369" style="stroke:#181818;stroke-width:1;"/><text fill="#000000" font-family="sans-serif" font-size="13" lengthAdjust="spacing" textLength="119.4248" x="1306.5" y="972.3638">periode_akademik</text><text fill="#000000" font-family="sans-serif" font-size="13" lengthAdjust="spacing" textLength="8.271" x="1214.0792" y="870.6498">1</text><text fill="#000000" font-family="sans-serif" font-size="13" lengthAdjust="spacing" textLength="8.271" x="1315.1618" y="995.341">1</text></g><!--reverse link Kegiatan to LokasiRuangan--><g class="link" data-entity-1="Kegiatan" data-entity-2="LokasiRuangan" data-source-line="90" data-uid="lnk15" id="link_Kegiatan_LokasiRuangan"><path codeLine="90" d="M761.6971,759.8505 C612.6471,814.2405 421.94,885.9769 246.5,959.2969 C211.45,973.9469 172.92,991.4969 141.43,1006.2369" fill="none" id="Kegiatan-backto-LokasiRuangan" style="stroke:#181818;stroke-width:1;"/><polygon fill="none" points="772.97,755.7369,765.9623,754.036,761.6971,759.8505,768.7048,761.5513,772.97,755.7369" style="stroke:#181818;stroke-width:1;"/><text fill="#000000" font-family="sans-serif" font-size="13" lengthAdjust="spacing" textLength="37.4448" x="247.5" y="972.3638">lokasi</text><text fill="#000000" font-family="sans-serif" font-size="13" lengthAdjust="spacing" textLength="8.271" x="757.0443" y="755.3499">1</text><text fill="#000000" font-family="sans-serif" font-size="13" lengthAdjust="spacing" textLength="8.271" x="146.0632" y="995.1123">1</text></g><!--reverse link Kegiatan to LaboratoriumRiset--><g class="link" data-entity-1="Kegiatan" data-entity-2="LaboratoriumRiset" data-source-line="91" data-uid="lnk16" id="link_Kegiatan_LaboratoriumRiset"><path codeLine="91" d="M761.4518,732.7869 C617.2618,775.3869 442,844.5669 308.5,959.2969 C293.75,971.9669 282.33,990.4769 274.43,1006.2769" fill="none" id="Kegiatan-backto-LaboratoriumRiset" style="stroke:#181818;stroke-width:1;"/><polygon fill="none" points="772.96,729.3869,766.0725,727.2508,761.4518,732.7869,768.3392,734.923,772.96,729.3869" style="stroke:#181818;stroke-width:1;"/><text fill="#000000" font-family="sans-serif" font-size="13" lengthAdjust="spacing" textLength="223.6406" x="309.5" y="972.3638">laboratorium_riset_penyelenggara</text><text fill="#000000" font-family="sans-serif" font-size="13" lengthAdjust="spacing" textLength="8.271" x="757.034" y="728.053">1</text><text fill="#000000" font-family="sans-serif" font-size="13" lengthAdjust="spacing" textLength="8.271" x="268.2595" y="995.1605">1</text></g><!--reverse link Kegiatan to Dosen--><g class="link" data-entity-1="Kegiatan" data-entity-2="Dosen" data-source-line="92" data-uid="lnk17" id="link_Kegiatan_Dosen"><path codeLine="92" d="M762.492,782.4521 C682.772,828.0221 608.34,883.2069 550.5,959.2969 C540.21,972.8369 534.29,990.8169 530.91,1006.1069" fill="none" id="Kegiatan-backto-Dosen" style="stroke:#181818;stroke-width:1;"/><polygon fill="none" points="772.91,776.4969,765.7159,776.0018,762.492,782.4521,769.6861,782.9472,772.91,776.4969" style="stroke:#181818;stroke-width:1;"/><text fill="#000000" font-family="sans-serif" font-size="13" lengthAdjust="spacing" textLength="265.0273" x="551.5" y="972.3638">ketua_panitia/dosen_penanggung_jawab</text><text fill="#000000" font-family="sans-serif" font-size="13" lengthAdjust="spacing" textLength="8.271" x="756.9822" y="776.856">1</text><text fill="#000000" font-family="sans-serif" font-size="13" lengthAdjust="spacing" textLength="8.271" x="523.005" y="995.329">1</text></g><!--reverse link Kegiatan to Person--><g class="link" data-entity-1="Kegiatan" data-entity-2="Person" data-source-line="93" data-uid="lnk18" id="link_Kegiatan_Person"><path codeLine="93" d="M962.7667,940.9833 C958.4267,957.0833 956.46,961.2569 950.5,976.2969 C946.36,986.7369 940.04,997.0469 933.46,1006.1369" fill="none" id="Kegiatan-backto-Person" style="stroke:#181818;stroke-width:1;"/><polygon fill="none" points="965.89,929.3969,960.4662,934.149,962.7667,940.9833,968.1905,936.2312,965.89,929.3969" style="stroke:#181818;stroke-width:1;"/><text fill="#000000" font-family="sans-serif" font-size="13" lengthAdjust="spacing" textLength="68.5737" x="957.5" y="972.3638">moderator</text><text fill="#000000" font-family="sans-serif" font-size="13" lengthAdjust="spacing" textLength="8.271" x="956.9837" y="949.9789">1</text><text fill="#000000" font-family="sans-serif" font-size="13" lengthAdjust="spacing" textLength="8.271" x="930.2705" y="994.9917">1</text></g><!--reverse link Kegiatan to Person--><g class="link" data-entity-1="Kegiatan" data-entity-2="Person" data-source-line="94" data-uid="lnk19" id="link_Kegiatan_Person"><path codeLine="94" d="M831.8039,940.8155 C828.3139,950.7255 829.17,949.3569 826.5,959.2969 C819.57,985.0569 843.16,1005.6469 866.49,1019.1869" fill="none" id="Kegiatan-backto-Person-1" style="stroke:#181818;stroke-width:1;"/><polygon fill="#181818" points="835.79,929.4969,830.0241,933.8275,831.8039,940.8155,837.5698,936.4849,835.79,929.4969" style="stroke:#181818;stroke-width:1;"/><text fill="#000000" font-family="sans-serif" font-size="13" lengthAdjust="spacing" textLength="114.9053" x="827.5" y="972.3638">daftar_pembicara</text><text fill="#000000" font-family="sans-serif" font-size="13" lengthAdjust="spacing" textLength="8.271" x="823.1077" y="949.2709">1</text><text fill="#000000" font-family="sans-serif" font-size="13" lengthAdjust="spacing" textLength="36.5625" x="822.0446" y="1012.3225">many</text></g><!--reverse link Kegiatan to Institusi--><g class="link" data-entity-1="Kegiatan" data-entity-2="Institusi" data-source-line="95" data-uid="lnk20" id="link_Kegiatan_Institusi"><path codeLine="95" d="M1070.0151,941.0605 C1079.2551,971.2205 1083.99,986.6769 1089.93,1006.0669" fill="none" id="Kegiatan-backto-Institusi" style="stroke:#181818;stroke-width:1;"/><polygon fill="#181818" points="1066.5,929.5869,1064.433,936.4954,1070.0151,941.0605,1072.0821,934.152,1066.5,929.5869" style="stroke:#181818;stroke-width:1;"/><text fill="#000000" font-family="sans-serif" font-size="13" lengthAdjust="spacing" textLength="205.2769" x="1079.5" y="972.3638">daftar_institusi_asal_pembicara</text><text fill="#000000" font-family="sans-serif" font-size="13" lengthAdjust="spacing" textLength="8.271" x="1060.6669" y="949.3636">1</text><text fill="#000000" font-family="sans-serif" font-size="13" lengthAdjust="spacing" textLength="36.5625" x="1048.5358" y="995.2812">many</text></g><!--reverse link Kegiatan to Berkas--><g class="link" data-entity-1="Kegiatan" data-entity-2="Berkas" data-source-line="96" data-uid="lnk21" id="link_Kegiatan_Berkas"><path codeLine="96" d="M1216.3157,818.9279 C1280.8157,857.6879 1341.81,893.0769 1408.5,929.2969 C1450.25,951.9669 1461.79,955.5069 1504.5,976.2969 C1533.23,990.2869 1565.7,1005.9969 1590.47,1017.9769" fill="none" id="Kegiatan-backto-Berkas" style="stroke:#181818;stroke-width:1;"/><polygon fill="#181818" points="1206.03,812.7469,1209.1125,819.2659,1216.3157,818.9279,1213.2332,812.4088,1206.03,812.7469" style="stroke:#181818;stroke-width:1;"/><text fill="#000000" font-family="sans-serif" font-size="13" lengthAdjust="spacing" textLength="222.79" x="1505.5" y="972.3638">daftar_materi/daftar_dokumentasi</text><text fill="#000000" font-family="sans-serif" font-size="13" lengthAdjust="spacing" textLength="8.271" x="1213.9549" y="814.4087">1</text><text fill="#000000" font-family="sans-serif" font-size="13" lengthAdjust="spacing" textLength="36.5625" x="1545.9915" y="1010.9348">many</text></g><!--link PesertaKegiatan to Profile--><g class="link" data-entity-1="PesertaKegiatan" data-entity-2="Profile" data-source-line="99" data-uid="lnk22" id="link_PesertaKegiatan_Profile"><path codeLine="99" d="M1463.5,340.1169 C1463.5,427.0269 1463.5,567.2569 1463.5,632.8069" fill="none" id="PesertaKegiatan-to-Profile" style="stroke:#181818;stroke-width:1;"/><polygon fill="#181818" points="1463.5,644.8069,1467.5,638.8069,1463.5,632.8069,1459.5,638.8069,1463.5,644.8069" style="stroke:#181818;stroke-width:1;"/><text fill="#000000" font-family="sans-serif" font-size="13" lengthAdjust="spacing" textLength="41.3486" x="1464.5" y="391.3638">profile</text><text fill="#000000" font-family="sans-serif" font-size="13" lengthAdjust="spacing" textLength="36.5625" x="1425.4799" y="360.5254">many</text><text fill="#000000" font-family="sans-serif" font-size="13" lengthAdjust="spacing" textLength="8.271" x="1454.7552" y="634.2209">1</text></g><!--link PesertaKegiatan to Kegiatan--><g class="link" data-entity-1="PesertaKegiatan" data-entity-2="Kegiatan" data-source-line="100" data-uid="lnk23" id="link_PesertaKegiatan_Kegiatan"><path codeLine="100" d="M1388.13,339.8969 C1338.7,381.6169 1280.5109,430.7177 1215.2409,485.7977" fill="none" id="PesertaKegiatan-to-Kegiatan" style="stroke:#181818;stroke-width:1;"/><polygon fill="#181818" points="1206.07,493.5369,1213.2352,492.7243,1215.2409,485.7977,1208.0757,486.6103,1206.07,493.5369" style="stroke:#181818;stroke-width:1;"/><text fill="#000000" font-family="sans-serif" font-size="13" lengthAdjust="spacing" textLength="56.6592" x="1336.5" y="391.3638">kegiatan</text><text fill="#000000" font-family="sans-serif" font-size="13" lengthAdjust="spacing" textLength="36.5625" x="1341.3953" y="360.28">many</text><text fill="#000000" font-family="sans-serif" font-size="13" lengthAdjust="spacing" textLength="8.271" x="1213.9964" y="483.7271">1</text></g><!--reverse link PesertaKegiatan to Berkas--><g class="link" data-entity-1="PesertaKegiatan" data-entity-2="Berkas" data-source-line="101" data-uid="lnk24" id="link_PesertaKegiatan_Berkas"><path codeLine="101" d="M1504.175,350.7822 C1566.645,468.7722 1689.1,720.1069 1732.5,959.2969 C1733.85,966.7269 1736.23,969.7269 1732.5,976.2969 C1719.27,999.6269 1693.17,1014.9969 1670.69,1024.4669" fill="none" id="PesertaKegiatan-backto-Berkas" style="stroke:#181818;stroke-width:1;"/><polygon fill="none" points="1498.56,340.1769,1497.8324,347.3512,1504.175,350.7822,1504.9026,343.6079,1498.56,340.1769" style="stroke:#181818;stroke-width:1;"/><text fill="#000000" font-family="sans-serif" font-size="13" lengthAdjust="spacing" textLength="140.4419" x="1726.5" y="681.8638">sertifikat/bukti_absen</text><text fill="#000000" font-family="sans-serif" font-size="13" lengthAdjust="spacing" textLength="36.5625" x="1464.4838" y="360.1411">many</text><text fill="#000000" font-family="sans-serif" font-size="13" lengthAdjust="spacing" textLength="8.271" x="1678.5896" y="1017.7065">1</text></g><!--link Pertanyaan to PesertaKegiatan--><g class="link" data-entity-1="Pertanyaan" data-entity-2="PesertaKegiatan" data-source-line="104" data-uid="lnk25" id="link_Pertanyaan_PesertaKegiatan"><path codeLine="104" d="M1463.5,125.3169 C1463.5,150.0369 1463.5,170.4469 1463.5,198.7269" fill="none" id="Pertanyaan-to-PesertaKegiatan" style="stroke:#181818;stroke-width:1;"/><polygon fill="#181818" points="1463.5,210.7269,1467.5,204.7269,1463.5,198.7269,1459.5,204.7269,1463.5,210.7269" style="stroke:#181818;stroke-width:1;"/><text fill="#000000" font-family="sans-serif" font-size="13" lengthAdjust="spacing" textLength="112.5884" x="1464.5" y="168.3638">peserta_kegiatan</text><text fill="#000000" font-family="sans-serif" font-size="13" lengthAdjust="spacing" textLength="36.5625" x="1424.6614" y="145.0799">many</text><text fill="#000000" font-family="sans-serif" font-size="13" lengthAdjust="spacing" textLength="8.271" x="1455.1045" y="199.8919">1</text></g><!--link Evaluasi to Kegiatan--><g class="link" data-entity-1="Evaluasi" data-entity-2="Kegiatan" data-source-line="107" data-uid="lnk26" id="link_Evaluasi_Kegiatan"><path codeLine="107" d="M989.5,348.7369 C989.5,371.2469 989.5,385.4669 989.5,413.0769" fill="none" id="Evaluasi-to-Kegiatan" style="stroke:#181818;stroke-width:1;"/><polygon fill="#181818" points="989.5,425.0769,993.5,419.0769,989.5,413.0769,985.5,419.0769,989.5,425.0769" style="stroke:#181818;stroke-width:1;"/><text fill="#000000" font-family="sans-serif" font-size="13" lengthAdjust="spacing" textLength="56.6592" x="990.5" y="391.3638">kegiatan</text><text fill="#000000" font-family="sans-serif" font-size="13" lengthAdjust="spacing" textLength="36.5625" x="951.9145" y="368.0281">many</text><text fill="#000000" font-family="sans-serif" font-size="13" lengthAdjust="spacing" textLength="8.271" x="981.3809" y="414.4307">1</text></g><!--SRC=[XLLBJzmm4BxdLrYzyAYog5LFkK5fLGH8AsZFqMJZ3SQ97Va1fQZ_lUFOpdFJlR1avflnp3VZpuQPcf9RMZ4m8CWT5EHUbhJM92LVQz2QN3Ee53I9vaoqWF-HjjnleQAFx0ybbr-Iv8IaQNeuHvecoQvBqxlV4q8-FXh5H4K4D33wBAdcYhMQETkMAePPBZcKj66SjFuxXsWu_Nvxve1taeDc3nP4XUdhxcjmGY4L6AcORHwOfeRK8qkkd2blgNYZDHLLXVtreTTIKq4uDHRo5WGpREuhtLyNZKTNLbJvCxnYyn647MY9ADWRK0Xh2hRh3hZ_VDy1ReGsp5WiDs1ODEIWeJuK4d8so4JNH7_OZJ24Ww4LDZQYrCYMyToQAT7Q5frZP7gsfQtp1ZDCulTIeIq7LqNNE09-ieQIL-36vesjWHsmQwHJUyzMQgJkXRe2dsrJmnEUmZLhkWOrLSOdfZjd8WM3Dt2SUaf0EESLLJZLo98lSk1awYqbjmqLfjk22FdrS4T06SPfFQ6XAQZoXmdmHqLNAuMMQcZyfi6Ln-sgPCx3Ai_C8IGEms0Q7c4LRbaCoxK1dF7f6Kd-njknzKHCBybMoJt3szc6tpZg7XKpzfuhAMl2TFu49LCZQbnojcTOpW3rdi9oWzjMk7NkNAEIi23n1dqrinB3xF954O71jeyVSdvxWTgwmRoltVfWss56HnMEnl7u_wv332OnavNMRdrmMxJbVWhZLUIqnKfySLx07cYDYrL6xJh5rISxAGpzRSuw9UjvcUZIUxBPO0y660PjDfZFuwQoj8fQwDCQqalEcZVemffxK9erHDY7rVnX1vV-2NqChy0Jpj8h_mdvOGlRzLy2tjWumgIVvOTF7uZ4OFSx9pPRIFxXk2dHMNW1Lh0BkhEZ3yBXJ7uSsVHzk3Zy8gpswqQM3M8-nPqxN8DNQ0ITloMh4SF0isEFosgEi1BPL7SlbZgxdFHCB9AvU8GJqlJSKn6sAujQTooWjsUz7Ao5HBhxRWOnl1Yftw4UUW4RQU6yyjcXsK8NbucZ2YQz71xlxXy0]--></g></svg>