<svg xmlns="http://www.w3.org/2000/svg" xmlns:xlink="http://www.w3.org/1999/xlink" contentStyleType="text/css" data-diagram-type="CLASS" height="849px" preserveAspectRatio="none" style="width:989px;height:849px;background:#FFFFFF;" version="1.1" viewBox="0 0 989 849" width="989px" zoomAndPan="magnify"><title>Penelitian Models - Class Diagram</title><defs/><g><text fill="#000000" font-family="sans-serif" font-size="14" font-weight="bold" lengthAdjust="spacing" textLength="269.2402" x="352.9946" y="22.9951">Penelitian Models - Class Diagram</text><!--class Penelitian--><g class="entity" data-entity="Penelitian" data-source-line="6" data-uid="ent0002" id="entity_Penelitian"><rect fill="#F1F1F1" height="259.8594" rx="2.5" ry="2.5" style="stroke:#181818;stroke-width:0.5;" width="380.4502" x="296" y="441.2969"/><ellipse cx="447.3989" cy="457.2969" fill="#ADD1B2" rx="11" ry="11" style="stroke:#181818;stroke-width:1;"/><path d="M450.3677,462.9375 Q449.7896,463.2344 449.1489,463.375 Q448.5083,463.5313 447.8052,463.5313 Q445.3052,463.5313 443.9771,461.8906 Q442.6646,460.2344 442.6646,457.1094 Q442.6646,453.9844 443.9771,452.3281 Q445.3052,450.6719 447.8052,450.6719 Q448.5083,450.6719 449.1489,450.8281 Q449.8052,450.9844 450.3677,451.2813 L450.3677,454 Q449.7427,453.4219 449.1489,453.1563 Q448.5552,452.875 447.9302,452.875 Q446.5864,452.875 445.8989,453.9531 Q445.2114,455.0156 445.2114,457.1094 Q445.2114,459.2031 445.8989,460.2813 Q446.5864,461.3438 447.9302,461.3438 Q448.5552,461.3438 449.1489,461.0781 Q449.7427,460.7969 450.3677,460.2188 L450.3677,462.9375 Z " fill="#000000"/><text fill="#000000" font-family="sans-serif" font-size="14" lengthAdjust="spacing" textLength="69.1523" x="467.8989" y="462.1436">Penelitian</text><line style="stroke:#181818;stroke-width:0.5;" x1="297" x2="675.4502" y1="473.2969" y2="473.2969"/><ellipse cx="307" cy="486.9453" fill="none" rx="3" ry="3" style="stroke:#038048;stroke-width:1;"/><text fill="#000000" font-family="sans-serif" font-size="14" lengthAdjust="spacing" textLength="81.1699" x="316" y="490.292">String topik</text><ellipse cx="307" cy="503.2422" fill="none" rx="3" ry="3" style="stroke:#038048;stroke-width:1;"/><text fill="#000000" font-family="sans-serif" font-size="14" lengthAdjust="spacing" textLength="80.6436" x="316" y="506.5889">String judul</text><ellipse cx="307" cy="519.5391" fill="none" rx="3" ry="3" style="stroke:#038048;stroke-width:1;"/><text fill="#000000" font-family="sans-serif" font-size="14" lengthAdjust="spacing" textLength="108.8486" x="316" y="522.8857">String deskripsi</text><ellipse cx="307" cy="535.8359" fill="none" rx="3" ry="3" style="stroke:#038048;stroke-width:1;"/><text fill="#000000" font-family="sans-serif" font-size="14" lengthAdjust="spacing" textLength="145.6055" x="316" y="539.1826">String ruang_lingkup</text><ellipse cx="307" cy="552.1328" fill="none" rx="3" ry="3" style="stroke:#038048;stroke-width:1;"/><text fill="#000000" font-family="sans-serif" font-size="14" lengthAdjust="spacing" textLength="175.5947" x="316" y="555.4795">String target_pengerjaan</text><ellipse cx="307" cy="568.4297" fill="none" rx="3" ry="3" style="stroke:#038048;stroke-width:1;"/><text fill="#000000" font-family="sans-serif" font-size="14" lengthAdjust="spacing" textLength="258.2754" x="316" y="571.7764">String acuan_pekerjaan_sebelumnya</text><ellipse cx="307" cy="584.7266" fill="none" rx="3" ry="3" style="stroke:#038048;stroke-width:1;"/><text fill="#000000" font-family="sans-serif" font-size="14" lengthAdjust="spacing" textLength="99.1074" x="316" y="588.0732">Int target_bab</text><ellipse cx="307" cy="601.0234" fill="none" rx="3" ry="3" style="stroke:#038048;stroke-width:1;"/><text fill="#000000" font-family="sans-serif" font-size="14" lengthAdjust="spacing" textLength="157.4248" x="316" y="604.3701">Int kategori_penelitian</text><line style="stroke:#181818;stroke-width:0.5;" x1="297" x2="675.4502" y1="611.6719" y2="611.6719"/><ellipse cx="307" cy="625.3203" fill="#84BE84" rx="3" ry="3" style="stroke:#038048;stroke-width:1;"/><text fill="#000000" font-family="sans-serif" font-size="14" lengthAdjust="spacing" textLength="287.834" x="316" y="628.667">PeriodeAkademik periode_akademik (FK)</text><ellipse cx="307" cy="641.6172" fill="#84BE84" rx="3" ry="3" style="stroke:#038048;stroke-width:1;"/><text fill="#000000" font-family="sans-serif" font-size="14" lengthAdjust="spacing" textLength="294.957" x="316" y="644.9639">LaboratoriumRiset laboratorium_riset (FK)</text><ellipse cx="307" cy="657.9141" fill="#84BE84" rx="3" ry="3" style="stroke:#038048;stroke-width:1;"/><text fill="#000000" font-family="sans-serif" font-size="14" lengthAdjust="spacing" textLength="233.8301" x="316" y="661.2607">ProgramStudi bidang_ilmu (M2M)</text><ellipse cx="307" cy="674.2109" fill="#84BE84" rx="3" ry="3" style="stroke:#038048;stroke-width:1;"/><text fill="#000000" font-family="sans-serif" font-size="14" lengthAdjust="spacing" textLength="269.3223" x="316" y="677.5576">MataKuliah mata_kuliah_terkait (M2M)</text><ellipse cx="307" cy="690.5078" fill="#84BE84" rx="3" ry="3" style="stroke:#038048;stroke-width:1;"/><text fill="#000000" font-family="sans-serif" font-size="14" lengthAdjust="spacing" textLength="354.4502" x="316" y="693.8545">PendaftaranPenelitian pendaftaran_penelitian (FK)</text></g><!--class GrupPenelitian--><g class="entity" data-entity="GrupPenelitian" data-source-line="22" data-uid="ent0003" id="entity_GrupPenelitian"><rect fill="#F1F1F1" height="80.5938" rx="2.5" ry="2.5" style="stroke:#181818;stroke-width:0.5;" width="201.8066" x="42" y="275.2969"/><ellipse cx="86.895" cy="291.2969" fill="#ADD1B2" rx="11" ry="11" style="stroke:#181818;stroke-width:1;"/><path d="M89.8638,296.9375 Q89.2856,297.2344 88.645,297.375 Q88.0044,297.5313 87.3013,297.5313 Q84.8013,297.5313 83.4731,295.8906 Q82.1606,294.2344 82.1606,291.1094 Q82.1606,287.9844 83.4731,286.3281 Q84.8013,284.6719 87.3013,284.6719 Q88.0044,284.6719 88.645,284.8281 Q89.3013,284.9844 89.8638,285.2813 L89.8638,288 Q89.2388,287.4219 88.645,287.1563 Q88.0513,286.875 87.4263,286.875 Q86.0825,286.875 85.395,287.9531 Q84.7075,289.0156 84.7075,291.1094 Q84.7075,293.2031 85.395,294.2813 Q86.0825,295.3438 87.4263,295.3438 Q88.0513,295.3438 88.645,295.0781 Q89.2388,294.7969 89.8638,294.2188 L89.8638,296.9375 Z " fill="#000000"/><text fill="#000000" font-family="sans-serif" font-size="14" lengthAdjust="spacing" textLength="103.5166" x="107.395" y="296.1436">GrupPenelitian</text><line style="stroke:#181818;stroke-width:0.5;" x1="43" x2="242.8066" y1="307.2969" y2="307.2969"/><ellipse cx="53" cy="320.9453" fill="none" rx="3" ry="3" style="stroke:#038048;stroke-width:1;"/><text fill="#000000" font-family="sans-serif" font-size="14" lengthAdjust="spacing" textLength="125.3027" x="62" y="324.292">String nama_grup</text><line style="stroke:#181818;stroke-width:0.5;" x1="43" x2="242.8066" y1="331.5938" y2="331.5938"/><ellipse cx="53" cy="345.2422" fill="#84BE84" rx="3" ry="3" style="stroke:#038048;stroke-width:1;"/><text fill="#000000" font-family="sans-serif" font-size="14" lengthAdjust="spacing" textLength="175.8066" x="62" y="348.5889">Penelitian penelitian (FK)</text></g><!--class MemberGrupPenelitian--><g class="entity" data-entity="MemberGrupPenelitian" data-source-line="27" data-uid="ent0004" id="entity_MemberGrupPenelitian"><rect fill="#F1F1F1" height="96.8906" rx="2.5" ry="2.5" style="stroke:#181818;stroke-width:0.5;" width="275.5732" x="9" y="68.7969"/><ellipse cx="61.9854" cy="84.7969" fill="#ADD1B2" rx="11" ry="11" style="stroke:#181818;stroke-width:1;"/><path d="M64.9541,90.4375 Q64.376,90.7344 63.7354,90.875 Q63.0947,91.0313 62.3916,91.0313 Q59.8916,91.0313 58.5635,89.3906 Q57.251,87.7344 57.251,84.6094 Q57.251,81.4844 58.5635,79.8281 Q59.8916,78.1719 62.3916,78.1719 Q63.0947,78.1719 63.7354,78.3281 Q64.3916,78.4844 64.9541,78.7813 L64.9541,81.5 Q64.3291,80.9219 63.7354,80.6563 Q63.1416,80.375 62.5166,80.375 Q61.1729,80.375 60.4854,81.4531 Q59.7979,82.5156 59.7979,84.6094 Q59.7979,86.7031 60.4854,87.7813 Q61.1729,88.8438 62.5166,88.8438 Q63.1416,88.8438 63.7354,88.5781 Q64.3291,88.2969 64.9541,87.7188 L64.9541,90.4375 Z " fill="#000000"/><text fill="#000000" font-family="sans-serif" font-size="14" lengthAdjust="spacing" textLength="161.1025" x="82.4854" y="89.6436">MemberGrupPenelitian</text><line style="stroke:#181818;stroke-width:0.5;" x1="10" x2="283.5732" y1="100.7969" y2="100.7969"/><ellipse cx="20" cy="114.4453" fill="none" rx="3" ry="3" style="stroke:#038048;stroke-width:1;"/><text fill="#000000" font-family="sans-serif" font-size="14" lengthAdjust="spacing" textLength="63.6494" x="29" y="117.792">Int peran</text><line style="stroke:#181818;stroke-width:0.5;" x1="10" x2="283.5732" y1="125.0938" y2="125.0938"/><ellipse cx="20" cy="138.7422" fill="#84BE84" rx="3" ry="3" style="stroke:#038048;stroke-width:1;"/><text fill="#000000" font-family="sans-serif" font-size="14" lengthAdjust="spacing" textLength="249.5732" x="29" y="142.0889">GrupPenelitian grup_penelitian (FK)</text><ellipse cx="20" cy="155.0391" fill="#84BE84" rx="3" ry="3" style="stroke:#038048;stroke-width:1;"/><text fill="#000000" font-family="sans-serif" font-size="14" lengthAdjust="spacing" textLength="125.6719" x="29" y="158.3857">Profile profile (FK)</text></g><!--class BabPenelitian--><g class="entity" data-entity="BabPenelitian" data-source-line="33" data-uid="ent0005" id="entity_BabPenelitian"><rect fill="#F1F1F1" height="96.8906" rx="2.5" ry="2.5" style="stroke:#181818;stroke-width:0.5;" width="201.8066" x="587" y="267.2969"/><ellipse cx="635.542" cy="283.2969" fill="#ADD1B2" rx="11" ry="11" style="stroke:#181818;stroke-width:1;"/><path d="M638.5107,288.9375 Q637.9326,289.2344 637.292,289.375 Q636.6514,289.5313 635.9482,289.5313 Q633.4482,289.5313 632.1201,287.8906 Q630.8076,286.2344 630.8076,283.1094 Q630.8076,279.9844 632.1201,278.3281 Q633.4482,276.6719 635.9482,276.6719 Q636.6514,276.6719 637.292,276.8281 Q637.9482,276.9844 638.5107,277.2813 L638.5107,280 Q637.8857,279.4219 637.292,279.1563 Q636.6982,278.875 636.0732,278.875 Q634.7295,278.875 634.042,279.9531 Q633.3545,281.0156 633.3545,283.1094 Q633.3545,285.2031 634.042,286.2813 Q634.7295,287.3438 636.0732,287.3438 Q636.6982,287.3438 637.292,287.0781 Q637.8857,286.7969 638.5107,286.2188 L638.5107,288.9375 Z " fill="#000000"/><text fill="#000000" font-family="sans-serif" font-size="14" lengthAdjust="spacing" textLength="96.2227" x="656.042" y="288.1436">BabPenelitian</text><line style="stroke:#181818;stroke-width:0.5;" x1="588" x2="787.8066" y1="299.2969" y2="299.2969"/><ellipse cx="598" cy="312.9453" fill="none" rx="3" ry="3" style="stroke:#038048;stroke-width:1;"/><text fill="#000000" font-family="sans-serif" font-size="14" lengthAdjust="spacing" textLength="123.8535" x="607" y="316.292">PositiveInt urutan</text><ellipse cx="598" cy="329.2422" fill="none" rx="3" ry="3" style="stroke:#038048;stroke-width:1;"/><text fill="#000000" font-family="sans-serif" font-size="14" lengthAdjust="spacing" textLength="85.9004" x="607" y="332.5889">String nama</text><line style="stroke:#181818;stroke-width:0.5;" x1="588" x2="787.8066" y1="339.8906" y2="339.8906"/><ellipse cx="598" cy="353.5391" fill="#84BE84" rx="3" ry="3" style="stroke:#038048;stroke-width:1;"/><text fill="#000000" font-family="sans-serif" font-size="14" lengthAdjust="spacing" textLength="175.8066" x="607" y="356.8857">Penelitian penelitian (FK)</text></g><!--class SubmisiBabPenelitian--><g class="entity" data-entity="SubmisiBabPenelitian" data-source-line="39" data-uid="ent0006" id="entity_SubmisiBabPenelitian"><rect fill="#F1F1F1" height="145.7813" rx="2.5" ry="2.5" style="stroke:#181818;stroke-width:0.5;" width="262.2295" x="720" y="44.2969"/><ellipse cx="771.0747" cy="60.2969" fill="#ADD1B2" rx="11" ry="11" style="stroke:#181818;stroke-width:1;"/><path d="M774.0435,65.9375 Q773.4653,66.2344 772.8247,66.375 Q772.1841,66.5313 771.481,66.5313 Q768.981,66.5313 767.6528,64.8906 Q766.3403,63.2344 766.3403,60.1094 Q766.3403,56.9844 767.6528,55.3281 Q768.981,53.6719 771.481,53.6719 Q772.1841,53.6719 772.8247,53.8281 Q773.481,53.9844 774.0435,54.2813 L774.0435,57 Q773.4185,56.4219 772.8247,56.1563 Q772.231,55.875 771.606,55.875 Q770.2622,55.875 769.5747,56.9531 Q768.8872,58.0156 768.8872,60.1094 Q768.8872,62.2031 769.5747,63.2813 Q770.2622,64.3438 771.606,64.3438 Q772.231,64.3438 772.8247,64.0781 Q773.4185,63.7969 774.0435,63.2188 L774.0435,65.9375 Z " fill="#000000"/><text fill="#000000" font-family="sans-serif" font-size="14" lengthAdjust="spacing" textLength="151.5801" x="791.5747" y="65.1436">SubmisiBabPenelitian</text><line style="stroke:#181818;stroke-width:0.5;" x1="721" x2="981.2295" y1="76.2969" y2="76.2969"/><ellipse cx="731" cy="89.9453" fill="none" rx="3" ry="3" style="stroke:#038048;stroke-width:1;"/><text fill="#000000" font-family="sans-serif" font-size="14" lengthAdjust="spacing" textLength="88.4775" x="740" y="93.292">String pesan</text><ellipse cx="731" cy="106.2422" fill="none" rx="3" ry="3" style="stroke:#038048;stroke-width:1;"/><text fill="#000000" font-family="sans-serif" font-size="14" lengthAdjust="spacing" textLength="156.7002" x="740" y="109.5889">Int status_persetujuan</text><ellipse cx="731" cy="122.5391" fill="none" rx="3" ry="3" style="stroke:#038048;stroke-width:1;"/><text fill="#000000" font-family="sans-serif" font-size="14" lengthAdjust="spacing" textLength="159.7764" x="740" y="125.8857">String feedback_dosen</text><line style="stroke:#181818;stroke-width:0.5;" x1="721" x2="981.2295" y1="133.1875" y2="133.1875"/><ellipse cx="731" cy="146.8359" fill="#84BE84" rx="3" ry="3" style="stroke:#038048;stroke-width:1;"/><text fill="#000000" font-family="sans-serif" font-size="14" lengthAdjust="spacing" textLength="236.2295" x="740" y="150.1826">BabPenelitian bab_penelitian (FK)</text><ellipse cx="731" cy="163.1328" fill="#84BE84" rx="3" ry="3" style="stroke:#038048;stroke-width:1;"/><text fill="#000000" font-family="sans-serif" font-size="14" lengthAdjust="spacing" textLength="132.248" x="740" y="166.4795">Berkas berkas (FK)</text><ellipse cx="731" cy="179.4297" fill="#84BE84" rx="3" ry="3" style="stroke:#038048;stroke-width:1;"/><text fill="#000000" font-family="sans-serif" font-size="14" lengthAdjust="spacing" textLength="205.126" x="740" y="182.7764">Bool is_can_delete (property)</text></g><!--class ForumDiskusi--><g class="entity" data-entity="ForumDiskusi" data-source-line="48" data-uid="ent0007" id="entity_ForumDiskusi"><rect fill="#F1F1F1" height="145.7813" rx="2.5" ry="2.5" style="stroke:#181818;stroke-width:0.5;" width="231.126" x="353.5" y="44.2969"/><ellipse cx="417.3066" cy="60.2969" fill="#ADD1B2" rx="11" ry="11" style="stroke:#181818;stroke-width:1;"/><path d="M420.2754,65.9375 Q419.6973,66.2344 419.0566,66.375 Q418.416,66.5313 417.7129,66.5313 Q415.2129,66.5313 413.8848,64.8906 Q412.5723,63.2344 412.5723,60.1094 Q412.5723,56.9844 413.8848,55.3281 Q415.2129,53.6719 417.7129,53.6719 Q418.416,53.6719 419.0566,53.8281 Q419.7129,53.9844 420.2754,54.2813 L420.2754,57 Q419.6504,56.4219 419.0566,56.1563 Q418.4629,55.875 417.8379,55.875 Q416.4941,55.875 415.8066,56.9531 Q415.1191,58.0156 415.1191,60.1094 Q415.1191,62.2031 415.8066,63.2813 Q416.4941,64.3438 417.8379,64.3438 Q418.4629,64.3438 419.0566,64.0781 Q419.6504,63.7969 420.2754,63.2188 L420.2754,65.9375 Z " fill="#000000"/><text fill="#000000" font-family="sans-serif" font-size="14" lengthAdjust="spacing" textLength="95.0127" x="437.8066" y="65.1436">ForumDiskusi</text><line style="stroke:#181818;stroke-width:0.5;" x1="354.5" x2="583.626" y1="76.2969" y2="76.2969"/><ellipse cx="364.5" cy="89.9453" fill="none" rx="3" ry="3" style="stroke:#038048;stroke-width:1;"/><text fill="#000000" font-family="sans-serif" font-size="14" lengthAdjust="spacing" textLength="81.9424" x="373.5" y="93.292">Int kirim_ke</text><ellipse cx="364.5" cy="106.2422" fill="none" rx="3" ry="3" style="stroke:#038048;stroke-width:1;"/><text fill="#000000" font-family="sans-serif" font-size="14" lengthAdjust="spacing" textLength="88.4775" x="373.5" y="109.5889">String pesan</text><line style="stroke:#181818;stroke-width:0.5;" x1="354.5" x2="583.626" y1="116.8906" y2="116.8906"/><ellipse cx="364.5" cy="130.5391" fill="#84BE84" rx="3" ry="3" style="stroke:#038048;stroke-width:1;"/><text fill="#000000" font-family="sans-serif" font-size="14" lengthAdjust="spacing" textLength="195.1045" x="373.5" y="133.8857">Profile profile_pengirim (FK)</text><ellipse cx="364.5" cy="146.8359" fill="#84BE84" rx="3" ry="3" style="stroke:#038048;stroke-width:1;"/><text fill="#000000" font-family="sans-serif" font-size="14" lengthAdjust="spacing" textLength="175.8066" x="373.5" y="150.1826">Penelitian penelitian (FK)</text><ellipse cx="364.5" cy="163.1328" fill="#84BE84" rx="3" ry="3" style="stroke:#038048;stroke-width:1;"/><text fill="#000000" font-family="sans-serif" font-size="14" lengthAdjust="spacing" textLength="193.0195" x="373.5" y="166.4795">ForumDiskusi balas_ke (FK)</text><ellipse cx="364.5" cy="179.4297" fill="#84BE84" rx="3" ry="3" style="stroke:#038048;stroke-width:1;"/><text fill="#000000" font-family="sans-serif" font-size="14" lengthAdjust="spacing" textLength="205.126" x="373.5" y="182.7764">Bool is_can_delete (property)</text></g><!--class PeriodeAkademik--><g class="entity" data-entity="PeriodeAkademik" data-source-line="58" data-uid="ent0008" id="entity_PeriodeAkademik"><rect fill="#F1F1F1" height="64.4453" rx="2.5" ry="2.5" style="stroke:#181818;stroke-width:0.5;" width="154.165" x="7" y="778.2969"/><ellipse cx="22" cy="794.2969" fill="#ADD1B2" rx="11" ry="11" style="stroke:#181818;stroke-width:1;"/><path d="M24.9688,799.9375 Q24.3906,800.2344 23.75,800.375 Q23.1094,800.5313 22.4063,800.5313 Q19.9063,800.5313 18.5781,798.8906 Q17.2656,797.2344 17.2656,794.1094 Q17.2656,790.9844 18.5781,789.3281 Q19.9063,787.6719 22.4063,787.6719 Q23.1094,787.6719 23.75,787.8281 Q24.4063,787.9844 24.9688,788.2813 L24.9688,791 Q24.3438,790.4219 23.75,790.1563 Q23.1563,789.875 22.5313,789.875 Q21.1875,789.875 20.5,790.9531 Q19.8125,792.0156 19.8125,794.1094 Q19.8125,796.2031 20.5,797.2813 Q21.1875,798.3438 22.5313,798.3438 Q23.1563,798.3438 23.75,798.0781 Q24.3438,797.7969 24.9688,797.2188 L24.9688,799.9375 Z " fill="#000000"/><text fill="#000000" font-family="sans-serif" font-size="14" lengthAdjust="spacing" textLength="122.165" x="36" y="799.1436">PeriodeAkademik</text><line style="stroke:#181818;stroke-width:0.5;" x1="8" x2="160.165" y1="810.2969" y2="810.2969"/><line style="stroke:#181818;stroke-width:1;stroke-dasharray:1.0,2.0;" x1="8" x2="60.7617" y1="826.4453" y2="826.4453"/><text fill="#000000" font-family="sans-serif" font-size="14" lengthAdjust="spacing" textLength="46.6416" x="60.7617" y="830.792">details</text><line style="stroke:#181818;stroke-width:1;stroke-dasharray:1.0,2.0;" x1="107.4033" x2="160.165" y1="826.4453" y2="826.4453"/></g><!--class LaboratoriumRiset--><g class="entity" data-entity="LaboratoriumRiset" data-source-line="61" data-uid="ent0009" id="entity_LaboratoriumRiset"><rect fill="#F1F1F1" height="64.4453" rx="2.5" ry="2.5" style="stroke:#181818;stroke-width:0.5;" width="161.3906" x="196.5" y="778.2969"/><ellipse cx="211.5" cy="794.2969" fill="#ADD1B2" rx="11" ry="11" style="stroke:#181818;stroke-width:1;"/><path d="M214.4688,799.9375 Q213.8906,800.2344 213.25,800.375 Q212.6094,800.5313 211.9063,800.5313 Q209.4063,800.5313 208.0781,798.8906 Q206.7656,797.2344 206.7656,794.1094 Q206.7656,790.9844 208.0781,789.3281 Q209.4063,787.6719 211.9063,787.6719 Q212.6094,787.6719 213.25,787.8281 Q213.9063,787.9844 214.4688,788.2813 L214.4688,791 Q213.8438,790.4219 213.25,790.1563 Q212.6563,789.875 212.0313,789.875 Q210.6875,789.875 210,790.9531 Q209.3125,792.0156 209.3125,794.1094 Q209.3125,796.2031 210,797.2813 Q210.6875,798.3438 212.0313,798.3438 Q212.6563,798.3438 213.25,798.0781 Q213.8438,797.7969 214.4688,797.2188 L214.4688,799.9375 Z " fill="#000000"/><text fill="#000000" font-family="sans-serif" font-size="14" lengthAdjust="spacing" textLength="129.3906" x="225.5" y="799.1436">LaboratoriumRiset</text><line style="stroke:#181818;stroke-width:0.5;" x1="197.5" x2="356.8906" y1="810.2969" y2="810.2969"/><line style="stroke:#181818;stroke-width:1;stroke-dasharray:1.0,2.0;" x1="197.5" x2="253.8745" y1="826.4453" y2="826.4453"/><text fill="#000000" font-family="sans-serif" font-size="14" lengthAdjust="spacing" textLength="46.6416" x="253.8745" y="830.792">details</text><line style="stroke:#181818;stroke-width:1;stroke-dasharray:1.0,2.0;" x1="300.5161" x2="356.8906" y1="826.4453" y2="826.4453"/></g><!--class PendaftaranPenelitian--><g class="entity" data-entity="PendaftaranPenelitian" data-source-line="64" data-uid="ent0010" id="entity_PendaftaranPenelitian"><rect fill="#F1F1F1" height="64.4453" rx="2.5" ry="2.5" style="stroke:#181818;stroke-width:0.5;" width="186.752" x="392.5" y="778.2969"/><ellipse cx="407.5" cy="794.2969" fill="#ADD1B2" rx="11" ry="11" style="stroke:#181818;stroke-width:1;"/><path d="M410.4688,799.9375 Q409.8906,800.2344 409.25,800.375 Q408.6094,800.5313 407.9063,800.5313 Q405.4063,800.5313 404.0781,798.8906 Q402.7656,797.2344 402.7656,794.1094 Q402.7656,790.9844 404.0781,789.3281 Q405.4063,787.6719 407.9063,787.6719 Q408.6094,787.6719 409.25,787.8281 Q409.9063,787.9844 410.4688,788.2813 L410.4688,791 Q409.8438,790.4219 409.25,790.1563 Q408.6563,789.875 408.0313,789.875 Q406.6875,789.875 406,790.9531 Q405.3125,792.0156 405.3125,794.1094 Q405.3125,796.2031 406,797.2813 Q406.6875,798.3438 408.0313,798.3438 Q408.6563,798.3438 409.25,798.0781 Q409.8438,797.7969 410.4688,797.2188 L410.4688,799.9375 Z " fill="#000000"/><text fill="#000000" font-family="sans-serif" font-size="14" lengthAdjust="spacing" textLength="154.752" x="421.5" y="799.1436">PendaftaranPenelitian</text><line style="stroke:#181818;stroke-width:0.5;" x1="393.5" x2="578.252" y1="810.2969" y2="810.2969"/><line style="stroke:#181818;stroke-width:1;stroke-dasharray:1.0,2.0;" x1="393.5" x2="462.5552" y1="826.4453" y2="826.4453"/><text fill="#000000" font-family="sans-serif" font-size="14" lengthAdjust="spacing" textLength="46.6416" x="462.5552" y="830.792">details</text><line style="stroke:#181818;stroke-width:1;stroke-dasharray:1.0,2.0;" x1="509.1968" x2="578.252" y1="826.4453" y2="826.4453"/></g><!--class ProgramStudi--><g class="entity" data-entity="ProgramStudi" data-source-line="67" data-uid="ent0011" id="entity_ProgramStudi"><rect fill="#F1F1F1" height="64.4453" rx="2.5" ry="2.5" style="stroke:#181818;stroke-width:0.5;" width="127.6484" x="615" y="778.2969"/><ellipse cx="630" cy="794.2969" fill="#ADD1B2" rx="11" ry="11" style="stroke:#181818;stroke-width:1;"/><path d="M632.9688,799.9375 Q632.3906,800.2344 631.75,800.375 Q631.1094,800.5313 630.4063,800.5313 Q627.9063,800.5313 626.5781,798.8906 Q625.2656,797.2344 625.2656,794.1094 Q625.2656,790.9844 626.5781,789.3281 Q627.9063,787.6719 630.4063,787.6719 Q631.1094,787.6719 631.75,787.8281 Q632.4063,787.9844 632.9688,788.2813 L632.9688,791 Q632.3438,790.4219 631.75,790.1563 Q631.1563,789.875 630.5313,789.875 Q629.1875,789.875 628.5,790.9531 Q627.8125,792.0156 627.8125,794.1094 Q627.8125,796.2031 628.5,797.2813 Q629.1875,798.3438 630.5313,798.3438 Q631.1563,798.3438 631.75,798.0781 Q632.3438,797.7969 632.9688,797.2188 L632.9688,799.9375 Z " fill="#000000"/><text fill="#000000" font-family="sans-serif" font-size="14" lengthAdjust="spacing" textLength="95.6484" x="644" y="799.1436">ProgramStudi</text><line style="stroke:#181818;stroke-width:0.5;" x1="616" x2="741.6484" y1="810.2969" y2="810.2969"/><line style="stroke:#181818;stroke-width:1;stroke-dasharray:1.0,2.0;" x1="616" x2="655.5034" y1="826.4453" y2="826.4453"/><text fill="#000000" font-family="sans-serif" font-size="14" lengthAdjust="spacing" textLength="46.6416" x="655.5034" y="830.792">details</text><line style="stroke:#181818;stroke-width:1;stroke-dasharray:1.0,2.0;" x1="702.145" x2="741.6484" y1="826.4453" y2="826.4453"/></g><!--class MataKuliah--><g class="entity" data-entity="MataKuliah" data-source-line="70" data-uid="ent0012" id="entity_MataKuliah"><rect fill="#F1F1F1" height="64.4453" rx="2.5" ry="2.5" style="stroke:#181818;stroke-width:0.5;" width="110.0117" x="778" y="778.2969"/><ellipse cx="793" cy="794.2969" fill="#ADD1B2" rx="11" ry="11" style="stroke:#181818;stroke-width:1;"/><path d="M795.9688,799.9375 Q795.3906,800.2344 794.75,800.375 Q794.1094,800.5313 793.4063,800.5313 Q790.9063,800.5313 789.5781,798.8906 Q788.2656,797.2344 788.2656,794.1094 Q788.2656,790.9844 789.5781,789.3281 Q790.9063,787.6719 793.4063,787.6719 Q794.1094,787.6719 794.75,787.8281 Q795.4063,787.9844 795.9688,788.2813 L795.9688,791 Q795.3438,790.4219 794.75,790.1563 Q794.1563,789.875 793.5313,789.875 Q792.1875,789.875 791.5,790.9531 Q790.8125,792.0156 790.8125,794.1094 Q790.8125,796.2031 791.5,797.2813 Q792.1875,798.3438 793.5313,798.3438 Q794.1563,798.3438 794.75,798.0781 Q795.3438,797.7969 795.9688,797.2188 L795.9688,799.9375 Z " fill="#000000"/><text fill="#000000" font-family="sans-serif" font-size="14" lengthAdjust="spacing" textLength="78.0117" x="807" y="799.1436">MataKuliah</text><line style="stroke:#181818;stroke-width:0.5;" x1="779" x2="887.0117" y1="810.2969" y2="810.2969"/><line style="stroke:#181818;stroke-width:1;stroke-dasharray:1.0,2.0;" x1="779" x2="809.6851" y1="826.4453" y2="826.4453"/><text fill="#000000" font-family="sans-serif" font-size="14" lengthAdjust="spacing" textLength="46.6416" x="809.6851" y="830.792">details</text><line style="stroke:#181818;stroke-width:1;stroke-dasharray:1.0,2.0;" x1="856.3267" x2="887.0117" y1="826.4453" y2="826.4453"/></g><!--class Profile--><g class="entity" data-entity="Profile" data-source-line="73" data-uid="ent0013" id="entity_Profile"><rect fill="#F1F1F1" height="64.4453" rx="2.5" ry="2.5" style="stroke:#181818;stroke-width:0.5;" width="76.085" x="292" y="283.7969"/><ellipse cx="307" cy="299.7969" fill="#ADD1B2" rx="11" ry="11" style="stroke:#181818;stroke-width:1;"/><path d="M309.9688,305.4375 Q309.3906,305.7344 308.75,305.875 Q308.1094,306.0313 307.4063,306.0313 Q304.9063,306.0313 303.5781,304.3906 Q302.2656,302.7344 302.2656,299.6094 Q302.2656,296.4844 303.5781,294.8281 Q304.9063,293.1719 307.4063,293.1719 Q308.1094,293.1719 308.75,293.3281 Q309.4063,293.4844 309.9688,293.7813 L309.9688,296.5 Q309.3438,295.9219 308.75,295.6563 Q308.1563,295.375 307.5313,295.375 Q306.1875,295.375 305.5,296.4531 Q304.8125,297.5156 304.8125,299.6094 Q304.8125,301.7031 305.5,302.7813 Q306.1875,303.8438 307.5313,303.8438 Q308.1563,303.8438 308.75,303.5781 Q309.3438,303.2969 309.9688,302.7188 L309.9688,305.4375 Z " fill="#000000"/><text fill="#000000" font-family="sans-serif" font-size="14" lengthAdjust="spacing" textLength="44.085" x="321" y="304.6436">Profile</text><line style="stroke:#181818;stroke-width:0.5;" x1="293" x2="367.085" y1="315.7969" y2="315.7969"/><line style="stroke:#181818;stroke-width:1;stroke-dasharray:1.0,2.0;" x1="293" x2="306.7217" y1="331.9453" y2="331.9453"/><text fill="#000000" font-family="sans-serif" font-size="14" lengthAdjust="spacing" textLength="46.6416" x="306.7217" y="336.292">details</text><line style="stroke:#181818;stroke-width:1;stroke-dasharray:1.0,2.0;" x1="353.3633" x2="367.085" y1="331.9453" y2="331.9453"/></g><!--class Berkas--><g class="entity" data-entity="Berkas" data-source-line="76" data-uid="ent0014" id="entity_Berkas"><rect fill="#F1F1F1" height="64.4453" rx="2.5" ry="2.5" style="stroke:#181818;stroke-width:0.5;" width="79.9541" x="824" y="283.7969"/><ellipse cx="839" cy="299.7969" fill="#ADD1B2" rx="11" ry="11" style="stroke:#181818;stroke-width:1;"/><path d="M841.9688,305.4375 Q841.3906,305.7344 840.75,305.875 Q840.1094,306.0313 839.4063,306.0313 Q836.9063,306.0313 835.5781,304.3906 Q834.2656,302.7344 834.2656,299.6094 Q834.2656,296.4844 835.5781,294.8281 Q836.9063,293.1719 839.4063,293.1719 Q840.1094,293.1719 840.75,293.3281 Q841.4063,293.4844 841.9688,293.7813 L841.9688,296.5 Q841.3438,295.9219 840.75,295.6563 Q840.1563,295.375 839.5313,295.375 Q838.1875,295.375 837.5,296.4531 Q836.8125,297.5156 836.8125,299.6094 Q836.8125,301.7031 837.5,302.7813 Q838.1875,303.8438 839.5313,303.8438 Q840.1563,303.8438 840.75,303.5781 Q841.3438,303.2969 841.9688,302.7188 L841.9688,305.4375 Z " fill="#000000"/><text fill="#000000" font-family="sans-serif" font-size="14" lengthAdjust="spacing" textLength="47.9541" x="853" y="304.6436">Berkas</text><line style="stroke:#181818;stroke-width:0.5;" x1="825" x2="902.9541" y1="315.7969" y2="315.7969"/><line style="stroke:#181818;stroke-width:1;stroke-dasharray:1.0,2.0;" x1="825" x2="840.6563" y1="331.9453" y2="331.9453"/><text fill="#000000" font-family="sans-serif" font-size="14" lengthAdjust="spacing" textLength="46.6416" x="840.6563" y="336.292">details</text><line style="stroke:#181818;stroke-width:1;stroke-dasharray:1.0,2.0;" x1="887.2979" x2="902.9541" y1="331.9453" y2="331.9453"/></g><!--link Penelitian to PeriodeAkademik--><g class="link" data-entity-1="Penelitian" data-entity-2="PeriodeAkademik" data-source-line="83" data-uid="lnk15" id="link_Penelitian_PeriodeAkademik"><path codeLine="83" d="M295.82,677.9369 C265.28,695.4669 234.14,713.6769 205,731.2969 C180.19,746.2969 163.0659,757.1533 140.7659,771.7233" fill="none" id="Penelitian-to-PeriodeAkademik" style="stroke:#181818;stroke-width:1;"/><polygon fill="#181818" points="130.72,778.2869,137.9308,778.3537,140.7659,771.7233,133.5551,771.6565,130.72,778.2869" style="stroke:#181818;stroke-width:1;"/><text fill="#000000" font-family="sans-serif" font-size="13" lengthAdjust="spacing" textLength="119.4248" x="206" y="744.3638">periode_akademik</text><text fill="#000000" font-family="sans-serif" font-size="13" lengthAdjust="spacing" textLength="36.5625" x="251.6902" y="678.8818">many</text><text fill="#000000" font-family="sans-serif" font-size="13" lengthAdjust="spacing" textLength="8.271" x="131.5419" y="767.1726">1</text></g><!--link Penelitian to LaboratoriumRiset--><g class="link" data-entity-1="Penelitian" data-entity-2="LaboratoriumRiset" data-source-line="84" data-uid="lnk16" id="link_Penelitian_LaboratoriumRiset"><path codeLine="84" d="M372.02,701.5469 C346.8,730.1369 330.268,748.8975 312.468,769.0775" fill="none" id="Penelitian-to-LaboratoriumRiset" style="stroke:#181818;stroke-width:1;"/><polygon fill="#181818" points="304.53,778.0769,311.4988,776.2232,312.468,769.0775,305.4992,770.9312,304.53,778.0769" style="stroke:#181818;stroke-width:1;"/><text fill="#000000" font-family="sans-serif" font-size="13" lengthAdjust="spacing" textLength="119.3296" x="346" y="744.3638">laboratorium_riset</text><text fill="#000000" font-family="sans-serif" font-size="13" lengthAdjust="spacing" textLength="36.5625" x="328.8054" y="721.1544">many</text><text fill="#000000" font-family="sans-serif" font-size="13" lengthAdjust="spacing" textLength="8.271" x="301.1507" y="767.2931">1</text></g><!--reverse link Penelitian to ProgramStudi--><g class="link" data-entity-1="Penelitian" data-entity-2="ProgramStudi" data-source-line="85" data-uid="lnk17" id="link_Penelitian_ProgramStudi"><path codeLine="85" d="M624.6765,710.6817 C632.7765,720.5217 632.89,721.2669 640,731.2969 C650.24,745.7469 659.27,763.2869 666.05,778.0669" fill="none" id="Penelitian-backto-ProgramStudi" style="stroke:#181818;stroke-width:1;"/><polygon fill="#181818" points="617.05,701.4169,617.775,708.5914,624.6765,710.6817,623.9515,703.5071,617.05,701.4169" style="stroke:#181818;stroke-width:1;"/><text fill="#000000" font-family="sans-serif" font-size="13" lengthAdjust="spacing" textLength="79.1997" x="652" y="744.3638">bidang_ilmu</text><text fill="#000000" font-family="sans-serif" font-size="13" lengthAdjust="spacing" textLength="8.271" x="615.9931" y="721.0173">1</text><text fill="#000000" font-family="sans-serif" font-size="13" lengthAdjust="spacing" textLength="36.5625" x="624.0467" y="767.2812">many</text></g><!--reverse link Penelitian to MataKuliah--><g class="link" data-entity-1="Penelitian" data-entity-2="MataKuliah" data-source-line="86" data-uid="lnk18" id="link_Penelitian_MataKuliah"><path codeLine="86" d="M686.237,693.9244 C708.037,708.3044 719.7,716.5369 740,731.2969 C759.94,745.7969 781.08,763.3369 798.16,778.1069" fill="none" id="Penelitian-backto-MataKuliah" style="stroke:#181818;stroke-width:1;"/><polygon fill="#181818" points="676.22,687.3169,679.026,693.9596,686.237,693.9244,683.431,687.2816,676.22,687.3169" style="stroke:#181818;stroke-width:1;"/><text fill="#000000" font-family="sans-serif" font-size="13" lengthAdjust="spacing" textLength="128.5337" x="763" y="744.3638">mata_kuliah_terkait</text><text fill="#000000" font-family="sans-serif" font-size="13" lengthAdjust="spacing" textLength="8.271" x="684.4099" y="688.9677">1</text><text fill="#000000" font-family="sans-serif" font-size="13" lengthAdjust="spacing" textLength="36.5625" x="751.8113" y="767.329">many</text></g><!--reverse link Penelitian to PendaftaranPenelitian--><g class="link" data-entity-1="Penelitian" data-entity-2="PendaftaranPenelitian" data-source-line="87" data-uid="lnk19" id="link_Penelitian_PendaftaranPenelitian"><path codeLine="87" d="M482.5243,713.5768 C482.4643,729.3168 482.63,733.1769 483,748.2969 C483.24,758.0469 483.69,768.6669 484.18,778.2769" fill="none" id="Penelitian-backto-PendaftaranPenelitian" style="stroke:#181818;stroke-width:1;"/><polygon fill="none" points="482.57,701.5769,478.5472,707.5616,482.5243,713.5768,486.5471,707.5921,482.57,701.5769" style="stroke:#181818;stroke-width:1;"/><text fill="#000000" font-family="sans-serif" font-size="13" lengthAdjust="spacing" textLength="151.0234" x="484" y="744.3638">pendaftaran_penelitian</text><text fill="#000000" font-family="sans-serif" font-size="13" lengthAdjust="spacing" textLength="8.271" x="474.1588" y="721.1861">1</text><text fill="#000000" font-family="sans-serif" font-size="13" lengthAdjust="spacing" textLength="8.271" x="475.0332" y="767.1605">1</text></g><!--link GrupPenelitian to Penelitian--><g class="link" data-entity-1="GrupPenelitian" data-entity-2="Penelitian" data-source-line="89" data-uid="lnk20" id="link_GrupPenelitian_Penelitian"><path codeLine="89" d="M196.59,356.4069 C227.96,379.5869 259.8898,403.1842 301.7098,434.0942" fill="none" id="GrupPenelitian-to-Penelitian" style="stroke:#181818;stroke-width:1;"/><polygon fill="#181818" points="311.36,441.2269,308.9125,434.4438,301.7098,434.0942,304.1574,440.8773,311.36,441.2269" style="stroke:#181818;stroke-width:1;"/><text fill="#000000" font-family="sans-serif" font-size="13" lengthAdjust="spacing" textLength="64.6255" x="265" y="407.3638">penelitian</text><text fill="#000000" font-family="sans-serif" font-size="13" lengthAdjust="spacing" textLength="36.5625" x="166.0976" y="375.8819">many</text><text fill="#000000" font-family="sans-serif" font-size="13" lengthAdjust="spacing" textLength="8.271" x="293.0272" y="430.3484">1</text></g><!--link MemberGrupPenelitian to GrupPenelitian--><g class="link" data-entity-1="MemberGrupPenelitian" data-entity-2="GrupPenelitian" data-source-line="91" data-uid="lnk21" id="link_MemberGrupPenelitian_GrupPenelitian"><path codeLine="91" d="M133.06,165.8769 C128.24,187.5669 124.58,213.6469 127,237.2969 C128.27,249.7369 128.1835,251.3852 130.7335,263.4752" fill="none" id="MemberGrupPenelitian-to-GrupPenelitian" style="stroke:#181818;stroke-width:1;"/><polygon fill="#181818" points="133.21,275.2169,135.8856,268.5205,130.7335,263.4752,128.0578,270.1716,133.21,275.2169" style="stroke:#181818;stroke-width:1;"/><text fill="#000000" font-family="sans-serif" font-size="13" lengthAdjust="spacing" textLength="101.2134" x="128" y="233.3638">grup_penelitian</text><text fill="#000000" font-family="sans-serif" font-size="13" lengthAdjust="spacing" textLength="36.5625" x="92.638" y="185.847">many</text><text fill="#000000" font-family="sans-serif" font-size="13" lengthAdjust="spacing" textLength="8.271" x="122.9645" y="264.3652">1</text></g><!--link MemberGrupPenelitian to Profile--><g class="link" data-entity-1="MemberGrupPenelitian" data-entity-2="Profile" data-source-line="92" data-uid="lnk22" id="link_MemberGrupPenelitian_Profile"><path codeLine="92" d="M191.3,165.8669 C225.36,202.4369 263.2608,243.1362 292.7708,274.8162" fill="none" id="MemberGrupPenelitian-to-Profile" style="stroke:#181818;stroke-width:1;"/><polygon fill="#181818" points="300.95,283.5969,299.7873,276.4801,292.7708,274.8162,293.9335,281.9329,300.95,283.5969" style="stroke:#181818;stroke-width:1;"/><text fill="#000000" font-family="sans-serif" font-size="13" lengthAdjust="spacing" textLength="41.3486" x="256" y="233.3638">profile</text><text fill="#000000" font-family="sans-serif" font-size="13" lengthAdjust="spacing" textLength="36.5625" x="159.068" y="185.8356">many</text><text fill="#000000" font-family="sans-serif" font-size="13" lengthAdjust="spacing" textLength="8.271" x="286.4616" y="272.8171">1</text></g><!--link BabPenelitian to Penelitian--><g class="link" data-entity-1="BabPenelitian" data-entity-2="Penelitian" data-source-line="94" data-uid="lnk23" id="link_BabPenelitian_Penelitian"><path codeLine="94" d="M650.01,364.4769 C632.46,386.4969 618.178,404.4218 596.298,431.8818" fill="none" id="BabPenelitian-to-Penelitian" style="stroke:#181818;stroke-width:1;"/><polygon fill="#181818" points="588.82,441.2669,595.6874,439.067,596.298,431.8818,589.4306,434.0817,588.82,441.2669" style="stroke:#181818;stroke-width:1;"/><text fill="#000000" font-family="sans-serif" font-size="13" lengthAdjust="spacing" textLength="64.6255" x="624" y="407.3638">penelitian</text><text fill="#000000" font-family="sans-serif" font-size="13" lengthAdjust="spacing" textLength="36.5625" x="606.5371" y="384.1092">many</text><text fill="#000000" font-family="sans-serif" font-size="13" lengthAdjust="spacing" textLength="8.271" x="586.5279" y="430.3907">1</text></g><!--link SubmisiBabPenelitian to BabPenelitian--><g class="link" data-entity-1="SubmisiBabPenelitian" data-entity-2="BabPenelitian" data-source-line="96" data-uid="lnk24" id="link_SubmisiBabPenelitian_BabPenelitian"><path codeLine="96" d="M778.86,190.5269 C769.9,200.3169 761.07,210.3969 753,220.2969 C741.05,234.9569 735.7499,241.8285 725.3499,257.1485" fill="none" id="SubmisiBabPenelitian-to-BabPenelitian" style="stroke:#181818;stroke-width:1;"/><polygon fill="#181818" points="718.61,267.0769,725.2894,264.3593,725.3499,257.1485,718.6705,259.866,718.61,267.0769" style="stroke:#181818;stroke-width:1;"/><text fill="#000000" font-family="sans-serif" font-size="13" lengthAdjust="spacing" textLength="95.5957" x="754" y="233.3638">bab_penelitian</text><text fill="#000000" font-family="sans-serif" font-size="13" lengthAdjust="spacing" textLength="36.5625" x="734.5656" y="210.0523">many</text><text fill="#000000" font-family="sans-serif" font-size="13" lengthAdjust="spacing" textLength="8.271" x="714.3847" y="256.2549">1</text></g><!--link SubmisiBabPenelitian to Berkas--><g class="link" data-entity-1="SubmisiBabPenelitian" data-entity-2="Berkas" data-source-line="97" data-uid="lnk25" id="link_SubmisiBabPenelitian_Berkas"><path codeLine="97" d="M855.77,190.3469 C857.89,222.4469 859.4859,246.5832 861.1459,271.6132" fill="none" id="SubmisiBabPenelitian-to-Berkas" style="stroke:#181818;stroke-width:1;"/><polygon fill="#181818" points="861.94,283.5869,865.5342,277.3353,861.1459,271.6132,857.5517,277.8647,861.94,283.5869" style="stroke:#181818;stroke-width:1;"/><text fill="#000000" font-family="sans-serif" font-size="13" lengthAdjust="spacing" textLength="43.8623" x="860" y="233.3638">berkas</text><text fill="#000000" font-family="sans-serif" font-size="13" lengthAdjust="spacing" textLength="36.5625" x="818.5249" y="210.1079">many</text><text fill="#000000" font-family="sans-serif" font-size="13" lengthAdjust="spacing" textLength="8.271" x="852.7781" y="272.8051">1</text></g><!--link ForumDiskusi to Profile--><g class="link" data-entity-1="ForumDiskusi" data-entity-2="Profile" data-source-line="99" data-uid="lnk26" id="link_ForumDiskusi_Profile"><path codeLine="99" d="M375.5,190.5969 C367.05,199.9069 359.32,209.8569 353,220.2969 C341.37,239.5069 337.3626,252.3941 334.5226,271.7441" fill="none" id="ForumDiskusi-to-Profile" style="stroke:#181818;stroke-width:1;"/><polygon fill="#181818" points="332.78,283.6169,337.6089,278.2613,334.5226,271.7441,329.6937,277.0996,332.78,283.6169" style="stroke:#181818;stroke-width:1;"/><text fill="#000000" font-family="sans-serif" font-size="13" lengthAdjust="spacing" textLength="105.8218" x="354" y="233.3638">profile_pengirim</text><text fill="#000000" font-family="sans-serif" font-size="13" lengthAdjust="spacing" textLength="36.5625" x="329.2412" y="210.1287">many</text><text fill="#000000" font-family="sans-serif" font-size="13" lengthAdjust="spacing" textLength="8.271" x="324.5581" y="272.841">1</text></g><!--reverse link ForumDiskusi to Penelitian--><g class="link" data-entity-1="ForumDiskusi" data-entity-2="Penelitian" data-source-line="100" data-uid="lnk27" id="link_ForumDiskusi_Penelitian"><path codeLine="100" d="M472.1608,202.4084 C474.6908,269.7084 478.08,359.6769 481.14,441.0269" fill="none" id="ForumDiskusi-backto-Penelitian" style="stroke:#181818;stroke-width:1;"/><polygon fill="none" points="471.71,190.4169,467.9382,196.5629,472.1608,202.4084,475.9326,196.2624,471.71,190.4169" style="stroke:#181818;stroke-width:1;"/><text fill="#000000" font-family="sans-serif" font-size="13" lengthAdjust="spacing" textLength="64.6255" x="480" y="320.3638">penelitian</text><text fill="#000000" font-family="sans-serif" font-size="13" lengthAdjust="spacing" textLength="36.5625" x="434.2735" y="210.1846">many</text><text fill="#000000" font-family="sans-serif" font-size="13" lengthAdjust="spacing" textLength="8.271" x="472.6226" y="430.1368">1</text></g><!--reverse link ForumDiskusi to ForumDiskusi--><g class="link" data-entity-1="ForumDiskusi" data-entity-2="ForumDiskusi" data-source-line="101" data-uid="lnk28" id="link_ForumDiskusi_ForumDiskusi"><path codeLine="101" d="M596.6971,99.4074 C617.1471,101.9674 619.5,106.9269 619.5,117.2969 C619.5,127.6669 605.24,134.1169 584.79,136.6769" fill="none" id="ForumDiskusi-backto-ForumDiskusi" style="stroke:#181818;stroke-width:1;"/><polygon fill="none" points="584.79,97.9169,590.2467,102.6312,596.6971,99.4074,591.2404,94.6931,584.79,97.9169" style="stroke:#181818;stroke-width:1;"/><text fill="#000000" font-family="sans-serif" font-size="13" lengthAdjust="spacing" textLength="56.5957" x="625.5" y="121.8638">balas_ke</text><text fill="#000000" font-family="sans-serif" font-size="13" lengthAdjust="spacing" textLength="36.5625" x="592.5374" y="93.4399">many</text><text fill="#000000" font-family="sans-serif" font-size="13" lengthAdjust="spacing" textLength="8.271" x="592.4687" y="134.5161">1</text></g><!--SRC=[ZLJ9Rjim4BthAmXVcgImWHOzwHOtI56a1eBu0uIHDLOcaaY1Iz4qwBztj3ca5iSdaRCyphmPFKksHF684ako15BiL8Qb4MlnlGHZn1r1hg6AJ46o1Zw9EZi-Gevx-elYzbiKVHBhzNeEORsEeaCBuZdV8Y4-Fw8c3hej8CEA2b5tzmG6mzNzmtKJ-0jIfS4gJQvw8eDMb9ubqQrf2DvRJJ8NLjLKUFSNbxdIksTe2asreROIhPhszjPb95BAGEO9bPKJLxklknPr1nOUN4dmB2e-9aLxJYpg0iY-n_NesZKG9HyBL_jLWSxH9ZNA7FKBWFHySE0aTXMT9p6OOkag-GeTMJA38-U3z7YitwqDw60UkFWfxV1a2kbWAS1YpjHv6T6_OKW_jAl7W-eBb511akkkeR28uE4JrWwh5FKSuiZMWCxLptCv4YzctN_zldXR_Bgta4xsInc-_SOcscbd0xQRPYxjO-_IYWpDF16QcEEvBhRDaXYHTf_HdjPekhgQAeq5wmnZQDvez-A2Ye-8MGg78icKmTQnLQeKP983Jvz_DhJC45F5wVRLA_zUQLVTaIcSePwPaDTs7qbJzKxyCYl34ZNnIO7DFNWW1NwK7OkDVbXr9oLFMFAUPeEEN1sL5WSbBVwnrwsg3A8IYiXRjDdmpss1E6cpORmkRgeXIv7pVzfYj2yTIq6UUfp1QKUovE-NQEeE-28bpJEhMYUxNlch2kJhYiqtOlLbDM4jdeZlcUGfbV6C80S0d7N3DVP00MUnBxXdaZmEupaD7gUg9hLjTMwSyO9qHj58cYR4XH2dj5cj6oMFlF5Ozou26HOb7lxUA0fLwDAAPrLjb1mwuv72NGRHBMxSwryK1MhnKNCdQPfDysOys-EvdC0NdsJhFm00]--></g></svg>